<svg width="223" height="64" viewBox="0 0 223 64" fill="none" xmlns="http://www.w3.org/2000/svg">
<path d="M170.381 62.5572C168.651 63.2317 166.809 63.5758 164.952 63.5715H161.457C153.455 63.5715 146.97 57.3435 147.466 49.6583V1.55787H158.408V50.1914C158.434 51.4382 158.954 52.6236 159.854 53.487C160.754 54.3504 161.96 54.821 163.207 54.7955C163.453 54.7967 163.698 54.7783 163.941 54.7405L163.956 54.7834C165.164 58.0224 167.427 60.7606 170.381 62.5572Z" fill="#FFE617"/>
<path d="M144.237 17.4491H132.798V63.571H144.237V17.4491Z" fill="#FFE617"/>
<path d="M204.473 16.0074V15.9925C204.111 15.9727 203.744 15.9727 203.377 15.9777C203.212 15.9777 203.055 15.9727 202.891 15.9727L202.861 16.0024C202.733 16.0123 202.6 16.0074 202.47 16.0223C192.109 17.2062 188.841 24.5394 188.841 24.5394C188.535 23.2052 187.937 21.9551 187.091 20.8787C186.245 19.8023 185.172 18.9262 183.948 18.313L181.47 22.73C185.82 30.0974 182.818 36.3535 182.818 36.3535L187.935 38.7869C193.114 31.1827 200.484 33.6657 200.484 33.6657L202.703 28.5621C197.197 27.7477 195.814 27.914 194.154 28.3055C196.132 27.2668 198.183 26.3717 200.289 25.627C202.079 25.093 203.975 25.0173 205.802 25.4068C208.579 25.8379 210.78 27.018 211.469 29.4421C212.946 34.6971 207.924 34.5732 202.247 35.7136C196.294 36.9036 181.95 40.6019 181.95 51.3945C181.95 51.8257 181.97 52.247 182.01 52.6539C182.051 53.1554 182.124 53.6537 182.23 54.1457C181.517 54.3492 180.765 54.3843 180.036 54.2484C179.306 54.1125 178.618 53.8092 178.026 53.3624C177.434 52.9156 176.953 52.3374 176.622 51.6734C176.291 51.0093 176.118 50.2775 176.118 49.5355V1.37774H164.677V48.9809C164.68 52.8223 166.208 56.5055 168.924 59.2216C171.641 61.9376 175.324 63.4645 179.166 63.4668H182.661C185.32 63.4719 187.929 62.7419 190.199 61.3577C192.469 59.9734 194.313 57.9886 195.526 55.6226C195.26 55.545 194.998 55.4518 194.743 55.3434C193.782 54.9889 192.955 54.3439 192.378 53.4981C191.8 52.6523 191.5 51.6476 191.52 50.6236C191.52 50.5134 191.525 50.4033 191.53 50.2965C191.553 49.8849 191.623 49.4774 191.738 49.0817C191.895 48.5492 192.14 48.0467 192.462 47.5949C193.692 45.8399 196.121 44.5612 199.731 43.8867C205.264 42.8756 210.172 40.5695 211.645 38.4477V41.4913C211.645 50.1621 204.253 55.9739 198.071 55.9739C197.732 55.973 197.393 55.9546 197.056 55.9188C196.276 57.5345 195.23 59.0069 193.96 60.2741C193.052 61.1875 192.035 61.985 190.931 62.6485C192.964 63.2082 195.065 63.4836 197.174 63.4668C205.017 63.4668 209.999 59.9717 212.027 54.0719V63.5709H223V34.4179C223 22.0559 216.148 16.4589 204.473 16.0074Z" fill="#FFE617"/>
<path d="M20.0588 20.9948L11.5783 0.389324C11.5299 0.273905 11.4484 0.175368 11.3442 0.106099C11.2399 0.03683 11.1175 -8.16543e-05 10.9924 1.3563e-07H0.629613C0.526039 0.000957408 0.42427 0.0272138 0.333163 0.0764886C0.242057 0.125763 0.16437 0.196565 0.106877 0.282721C0.0493843 0.368876 0.0138306 0.46778 0.00329615 0.570819C-0.00723831 0.673858 0.00756707 0.777909 0.0464359 0.873916L10.7099 27.1408L14.1737 35.6696L15.3538 38.5683L16.4496 41.5332C16.6462 42.0431 16.872 42.6037 17.127 43.2011L17.1341 43.2083C17.4728 44.0057 17.8809 44.8691 18.3583 45.7755C18.9151 46.8427 19.5671 47.9683 20.3028 49.1153C24.488 56.0273 31.556 63.5732 42.4783 63.5732C43.3189 63.5708 44.1588 63.5258 44.9949 63.4382C46.6888 63.3864 48.3713 63.1409 50.0094 62.7064C50.1988 62.6629 50.385 62.6078 50.5705 62.5533C50.5738 62.5572 50.5777 62.5533 50.5777 62.55C50.7269 62.5131 50.8762 62.4658 51.026 62.4223C51.4405 62.2969 51.871 62.232 52.3041 62.2295C52.49 62.2612 52.6739 62.3036 52.8548 62.3567C52.8586 62.3606 52.8619 62.3639 52.8658 62.3639C54.3452 62.8016 55.8681 63.0764 57.4073 63.1833C58.3867 63.2948 59.3716 63.3509 60.3573 63.3512C63.237 63.4217 66.095 62.8362 68.715 61.6392C69.3417 61.4134 69.95 61.1658 70.54 60.8963C71.7594 60.3548 72.9168 59.6834 73.9922 58.8936C74.5533 58.4767 75.0829 58.019 75.5765 57.5241L75.6222 57.4827C75.9708 57.171 76.3018 56.8401 76.6135 56.4915C77.2238 55.8173 77.6734 55.0136 77.9285 54.1407C78.53 55.8299 79.3218 57.4452 80.2887 58.9552C81.3784 60.7201 82.9698 62.1197 84.8594 62.9751C85.1722 63.1133 85.4916 63.2361 85.8132 63.3413C86.0497 63.4167 86.3014 63.4312 86.545 63.3837C86.7306 63.3509 86.9207 63.3526 87.1056 63.3887C87.8693 63.5307 88.6461 63.5887 89.4224 63.5616C94.6704 63.3793 99.7328 59.3809 99.7328 52.9931C99.7179 52.9937 99.7031 52.9961 99.6887 53.0003C99.7141 52.6837 99.7328 52.3593 99.7328 52.0355V41.3344C99.7328 29.338 104.711 25.099 110.251 25.099C113.94 25.099 117.905 26.3881 117.905 34.1344V63.4691H129.345V33.1217C129.345 21.774 123.718 15.8709 114.77 15.8709C107.111 15.8709 102.133 19.5636 99.7328 25.8347V17.3472H88.2968V51.5652C88.2973 51.7103 88.254 51.8521 88.1725 51.9722C88.0911 52.0922 87.9753 52.1848 87.8404 52.238C87.7054 52.2911 87.5575 52.3023 87.4161 52.27C87.2747 52.2377 87.1463 52.1635 87.0478 52.057C86.9667 51.9716 86.893 51.8795 86.8275 51.7817C85.8804 50.438 85.2614 47.3246 84.861 44.0833C84.8137 43.6978 84.7696 43.3124 84.7261 42.9269C84.6969 42.6516 84.6678 42.3839 84.6424 42.1147C84.2344 37.9924 84.1435 34.2081 84.1435 34.2081C84.1435 26.1601 81.6451 20.9811 76.7032 18.2211C73.7169 16.5493 69.8346 15.7624 65.0706 15.7624C60.5148 15.7624 56.9205 16.5454 54.0977 17.7839C52.9958 18.2605 51.9463 18.8499 50.9659 19.5427L51.8724 17.2519L57.6595 2.62284L57.6744 2.57934C57.7209 2.46223 57.7285 2.33322 57.6958 2.21149C57.7176 2.12199 57.7189 2.02872 57.6995 1.93867C57.68 1.84862 57.6404 1.76415 57.5837 1.6916C57.5269 1.61905 57.4545 1.5603 57.3717 1.51978C57.289 1.47925 57.1982 1.458 57.1061 1.45762H46.8914C46.7695 1.45949 46.6508 1.49698 46.5499 1.56547C46.449 1.63396 46.3704 1.73046 46.3237 1.84309L40.6929 16.1115L32.7763 36.1801L29.9722 43.2837C29.9559 43.3249 29.9351 43.364 29.91 43.4005C29.8483 43.4929 29.7626 43.5668 29.6621 43.6144C29.5616 43.662 29.4501 43.6813 29.3395 43.6705C29.2289 43.6596 29.1232 43.6189 29.0339 43.5528C28.9446 43.4866 28.8749 43.3974 28.8323 43.2948L27.0586 38.6691L24.5711 32.1866L21.718 24.7702L20.0247 20.9089M44.7542 50.8219C44.7542 50.8731 44.7509 50.9204 44.7509 50.9711C44.7491 51.7667 44.8149 52.5611 44.9475 53.3456V53.3527C44.9782 53.5619 45.0743 53.756 45.2221 53.9072C45.3699 54.0583 45.5618 54.1588 45.7702 54.1942C48.1932 54.5246 51.3971 54.54 54.2855 53.2029C54.5476 53.0537 54.8097 52.8896 55.0608 52.7151C55.0283 52.6424 54.9953 52.5697 54.9661 52.4948C54.9991 52.4766 55.0283 52.4546 55.0608 52.4326C55.0245 52.356 54.992 52.2795 54.9589 52.1996C54.748 51.6919 54.626 51.1518 54.5982 50.6027C54.5911 50.519 54.5911 50.4347 54.5872 50.3549C54.6009 49.4028 54.8797 48.4733 55.3923 47.6709C55.3966 47.6602 55.4027 47.6503 55.4105 47.6417C56.025 46.7381 56.845 45.9931 57.8032 45.4677C58.5143 44.9355 59.2918 44.4984 60.1161 44.1676C60.821 43.9309 61.5397 43.7375 62.2682 43.5883C62.4394 43.5519 62.614 43.5156 62.7924 43.4831C65.0698 43.119 67.3075 42.5396 69.4755 41.7529C70.2534 41.5085 71.0128 41.2091 71.7482 40.8569C72.2625 40.6116 72.7537 40.3204 73.2157 39.9869C73.7354 39.6155 74.1895 39.1601 74.5594 38.6394V41.4764C74.5594 47.1538 72.0902 51.1743 68.6522 53.334C67.7176 53.9243 66.7052 54.3815 65.6444 54.6925C65.6388 54.6932 65.6336 54.6958 65.6295 54.6997C64.2012 55.2755 62.6754 55.5709 61.1354 55.5697C60.5778 55.5691 60.0213 55.5229 59.4712 55.4315C58.1621 55.2418 56.9442 54.6501 55.986 53.7382C55.9568 53.7129 55.9276 53.6798 55.8984 53.6506C55.4872 53.9335 55.0579 54.189 54.6131 54.4155C53.28 55.0874 51.8454 55.5352 50.3668 55.741C49.7134 55.8099 49.0568 55.8452 48.3997 55.8467C46.0328 55.8398 43.6808 55.4701 41.4259 54.7503L38.4065 53.5389C38.2707 53.4665 38.1664 53.3466 38.1134 53.2022C38.0604 53.0577 38.0624 52.8988 38.119 52.7558L43.0102 41.4445L43.0174 41.4517C43.0175 41.4444 43.0186 41.4372 43.0207 41.4302L44.5786 37.8271C44.9682 36.9124 45.4272 36.0288 45.9514 35.1839C46.0615 35.0055 46.1744 34.8306 46.2901 34.6591C46.4553 34.4042 46.6326 34.1602 46.8182 33.9163C46.8267 33.9044 46.8365 33.8935 46.8474 33.8838C47.4126 33.1621 48.0857 32.5319 48.8431 32.0154C56.2723 26.8187 60.4933 24.1166 66.2149 24.1166C66.9741 24.1135 67.7329 24.1536 68.4876 24.2366H68.4909C71.6667 24.5863 74.2417 25.7785 75.0137 28.4685C75.1287 28.8686 75.208 29.278 75.2505 29.6921V29.6954C75.2648 29.8193 75.272 29.9394 75.2758 30.0561C75.2246 31.5165 74.4383 32.4086 73.1673 33.0093C72.9791 33.2157 72.7662 33.398 72.5335 33.5523C70.7311 34.2131 68.2254 34.4626 65.5557 34.8926C61.3678 35.5881 57.4607 36.4472 54.1929 37.7985C52.8943 38.3204 51.6522 38.9732 50.4857 39.7468C49.5562 40.2983 48.6884 40.9479 47.8975 41.6846C45.909 43.8983 44.7509 46.8058 44.7509 50.6902C44.7509 50.737 44.7542 50.7811 44.7542 50.8246V50.8219Z" fill="#FFE617"/>
</svg>
