<svg width="207" height="178" viewBox="0 0 207 178" fill="none" xmlns="http://www.w3.org/2000/svg">
<path d="M108.861 143.902C108.861 143.902 109.353 151.794 110.875 151.911C111.085 151.935 118.601 151.935 118.601 151.935L128.223 151.888C128.223 151.888 128.152 149.57 125.343 149.078C122.534 148.586 117.828 146.619 116.119 142.895C114.34 138.96 108.861 143.902 108.861 143.902Z" fill="white" stroke="black" stroke-width="0.5" stroke-miterlimit="10"/>
<path d="M142.974 78.9119L151.192 75.7737C152.316 75.7737 154.446 76.7808 154.446 75.6566L153.229 55.5627C153.229 54.4385 152.316 53.5252 151.192 53.5252H145.901C144.777 53.5252 140.305 55.6798 140.61 59.6845L139.205 79.9424C139.205 81.0899 141.851 78.9119 142.974 78.9119Z" fill="#A2973E" stroke="black" stroke-width="0.5" stroke-miterlimit="10"/>
<path d="M166.691 62.5416C166.691 58.4901 163.483 55.1879 159.527 55.1879C155.57 55.1879 152.363 58.4666 152.363 62.5416C152.363 66.5932 155.57 69.8954 159.527 69.8954C163.46 69.8954 166.691 66.6166 166.691 62.5416Z" fill="#A2973E" stroke="black" stroke-width="0.5" stroke-miterlimit="10"/>
<path d="M131.854 151.793L142.764 156.196C150.326 141.489 158.052 134.276 164.654 130.716C176.547 124.299 184.811 129.732 182.025 124.697L161.634 81.6754C159.714 79.029 157.232 76.9915 154.446 75.68C151.426 74.2514 148.055 73.6425 144.707 73.9469C140.821 74.2982 138.269 78.2327 139.51 81.933C142.179 89.919 143.209 97.9285 143.209 105.563C143.209 130.927 131.854 151.793 131.854 151.793Z" fill="#C5B322" stroke="black" stroke-width="0.5" stroke-miterlimit="10"/>
<path d="M152.339 62.1435C152.339 62.8461 152.41 63.5487 152.527 64.2278C153.51 69.4738 158.099 73.4317 163.624 73.4317V50.8787C157.396 50.8553 152.339 55.8905 152.339 62.1435Z" fill="#C5B322" stroke="black" stroke-width="0.5" stroke-miterlimit="10"/>
<path d="M163.928 131.114C163.811 131.817 162.828 131.184 162.734 131.84C162.711 131.863 162.757 131.817 162.734 131.84C166.761 128.116 176.828 126.524 182.166 124.721C182.119 124.697 182.072 124.697 182.025 124.697L161.634 81.6754C159.714 79.029 157.232 76.9915 154.446 75.68C157.911 81.5349 167.51 100.224 165.286 125.423C165.122 127.156 164.911 128.913 164.654 130.716C164.607 130.997 163.975 130.833 163.928 131.114Z" fill="#A2973E"/>
<path d="M76.3687 16.1007C76.3687 16.1007 77.9372 19.0984 78.4055 19.5434C78.8737 19.9884 79.5761 22.8924 78.7332 24.7894C77.867 26.6864 76.7433 28.6302 76.7433 28.6302L85.6397 32.2836C85.6397 32.2836 86.9975 28.1384 87.7233 26.9206C88.2851 26.054 88.9407 25.2812 89.6898 24.5786C89.6898 24.5786 86.4825 22.9158 85.6162 20.0352C84.75 17.1546 83.954 13.5246 83.954 13.5246L76.3687 16.1007Z" fill="white" stroke="black" stroke-width="0.5" stroke-miterlimit="10"/>
<path d="M84.5161 22.7753L87.3021 27.6466L89.7135 24.602L84.5161 22.7753Z" fill="#263238" stroke="black" stroke-width="0.5" stroke-miterlimit="10"/>
<path d="M93.9743 11.4168C93.9743 11.4168 94.2085 13.3138 94.3489 13.8524C94.4894 14.3911 96.6433 15.1874 96.8305 15.9602C97.0178 16.733 95.262 18.3958 95.262 18.3958C95.262 18.3958 95.1683 23.4544 94.583 24.5317C93.9978 25.609 87.8873 25.4919 86.1549 24.4849C84.4224 23.5013 82.1749 18.794 81.7301 17.3185C81.2853 15.8431 80.9341 13.9461 80.9341 13.9461L93.2018 10.5269L93.9743 11.4168Z" fill="white" stroke="black" stroke-width="0.5" stroke-miterlimit="10"/>
<path d="M84.7266 13.5012C84.6096 13.993 84.75 14.5316 85.0778 14.9298C85.5226 15.3045 86.0377 15.5621 86.6229 15.6558L85.1012 16.1476V16.6862C83.8838 16.5223 82.8303 15.8431 82.1982 14.7893C81.0978 13.0094 81.2149 15.8431 81.2149 15.8431L81.9406 18.2553C81.4958 19.1687 80.8403 19.9884 80.0443 20.6207L78.8737 21.4404C78.8737 21.4404 76.556 15.726 76.3687 14.3911C76.1814 13.0796 80.1848 11.5573 81.168 11.6042C82.1045 11.6744 84.3754 12.0726 84.7266 13.5012Z" fill="#263238" stroke="black" stroke-width="0.5" stroke-miterlimit="10"/>
<path d="M92.265 14.2506C92.4055 14.7892 92.3118 15.2576 92.1011 15.3279C91.8904 15.3747 91.6095 14.9766 91.469 14.438C91.3519 13.8993 91.4222 13.4309 91.6329 13.3841C91.867 13.3372 92.1479 13.7354 92.265 14.2506Z" fill="#263238" stroke="black" stroke-width="0.5" stroke-miterlimit="10"/>
<path d="M91.0713 18.9345C91.9141 19.6605 93.0613 19.8479 94.0914 19.4263" stroke="black" stroke-width="0.5" stroke-miterlimit="10"/>
<path d="M76.3217 16.7096C76.3217 16.7096 85.4756 14.2037 88.9639 13.0796C92.4523 11.9554 93.974 11.4168 93.974 11.4168C93.974 11.4168 91.4456 4.67196 90.7432 2.89207C90.0409 1.11219 82.0341 0.339355 78.897 1.67427C75.7598 3.00918 73.1143 6.96708 73.3718 9.30903C73.606 11.6276 76.3217 16.7096 76.3217 16.7096Z" fill="#C5B322" stroke="black" stroke-width="0.5" stroke-miterlimit="10"/>
<path d="M88.2852 13.3841C88.2852 13.3841 92.0076 10.0819 93.6932 9.68377C95.3789 9.28563 102.028 7.52917 101.583 9.44957C101.138 11.3466 95.4257 11.9789 93.0143 12.5644C91.4691 12.9157 89.8771 13.1967 88.2852 13.3841Z" fill="white" stroke="black" stroke-width="0.5" stroke-miterlimit="10"/>
<path d="M45.442 118.28L46.6595 117.273L30.3182 95.8911L24.4185 95.6569L45.442 118.28Z" fill="black"/>
<path d="M75.6895 161.583H148.617C149.412 161.583 150.068 160.927 150.068 160.131V153.245C150.068 152.449 149.412 151.793 148.617 151.793H84.1878C83.3918 151.793 82.7363 152.449 82.7363 153.245L75.6895 161.583Z" fill="black"/>
<path d="M75.0577 156.196C75.0577 144.159 65.2951 134.393 53.2615 134.393C41.228 134.393 31.4653 144.159 31.4653 156.196C31.4653 168.234 41.228 178 53.2615 178C65.2951 178 75.0577 168.234 75.0577 156.196Z" fill="black"/>
<path d="M64.3821 156.196C64.3821 150.06 59.4189 145.072 53.2616 145.072C47.1278 145.072 42.1411 150.037 42.1411 156.196C42.1411 162.332 47.1044 167.321 53.2616 167.321C59.3954 167.297 64.3821 162.332 64.3821 156.196Z" fill="#A2973E"/>
<path d="M165.286 125.423C168.353 124.439 171.631 123.924 175.025 123.924C177.413 123.924 179.754 124.182 182.002 124.697C194.902 127.554 204.922 138.187 206.912 151.395C207.286 153.925 205.32 156.22 202.745 156.22H202.604C201.223 156.22 200.076 155.166 199.935 153.784C198.694 141.091 187.995 131.161 175.002 131.161C171.116 131.161 167.44 132.051 164.162 133.62C155.758 137.672 149.951 146.29 149.951 156.22H142.741C142.764 141.793 152.246 129.568 165.286 125.423Z" fill="black"/>
<path d="M2.87963 96.6405H57.6627C59.2547 96.6405 60.5423 95.3524 60.5423 93.7599V91.7927C60.5423 90.2001 59.2547 88.9121 57.6627 88.9121H2.87963C1.28765 88.9121 0 90.2001 0 91.7927V93.7599C0 95.3524 1.28765 96.6405 2.87963 96.6405Z" fill="black"/>
<path d="M175.025 177.953C187.063 177.953 196.821 168.191 196.821 156.15C196.821 144.108 187.063 134.346 175.025 134.346C162.988 134.346 153.229 144.108 153.229 156.15C153.229 168.191 162.988 177.953 175.025 177.953Z" fill="black"/>
<path d="M163.928 156.196C163.928 158.07 164.396 159.826 165.215 161.372C165.262 161.466 165.332 161.583 165.379 161.677C167.276 165.049 170.904 167.321 175.048 167.321C181.182 167.321 186.169 162.356 186.169 156.196C186.169 151.583 183.336 147.601 179.333 145.939C179.286 145.915 179.239 145.892 179.216 145.892C177.928 145.377 176.547 145.096 175.072 145.096C168.891 145.072 163.928 150.06 163.928 156.196Z" fill="#C5B322" stroke="black" stroke-width="0.5" stroke-miterlimit="10"/>
<path d="M95.215 112.285C95.215 112.285 89.5962 134.604 108.56 155.189L61.877 151.794L67.8235 106.734L95.215 112.285Z" fill="black"/>
<path d="M9.34131 158.702C9.34131 159.499 9.66906 160.225 10.1841 160.74C10.6992 161.255 11.4249 161.583 12.2209 161.583H82.1279C83.7199 161.583 85.0075 160.295 85.0075 158.702L84.071 112.964L60.519 111.512C29.1709 111.535 9.34131 127.344 9.34131 158.702Z" fill="black"/>
<path d="M134.546 63.6658C134.593 63.6658 135.061 63.5721 135.108 63.5721L147.516 60.1295C148.008 60.0358 148.359 59.4269 148.266 58.7711C148.195 58.1154 147.727 57.6704 147.236 57.7641L134.804 60.1997C134.312 60.2934 133.914 61.0428 133.797 61.6985C133.61 62.729 134.102 63.6658 134.546 63.6658Z" fill="#2B478B"/>
<path d="M14.8662 161.606H82.1277C82.1277 161.606 86.2247 136.688 71.1008 128.28C67.4486 126.243 62.8834 125.564 57.8967 126.055C42.1641 127.578 22.3579 140.903 14.8662 161.606Z" fill="#A2973E" stroke="black" stroke-width="0.5" stroke-miterlimit="10"/>
<path d="M14.8662 161.606H42.7962C59.6526 153.058 58.6224 132.402 57.8733 126.055C42.1641 127.578 22.3579 140.903 14.8662 161.606Z" fill="#C5B322" stroke="black" stroke-width="0.5" stroke-miterlimit="10"/>
<path d="M68.7363 83.6192C68.7363 83.6192 69.4621 96.2892 72.3417 99.8958C75.2213 103.502 130.496 102.097 130.496 102.097C130.496 102.097 130.73 93.9707 128.576 91.8863C126.422 89.802 116.332 83.8066 84.0943 80.3873L68.7363 83.6192Z" fill="#C5B322" stroke="black" stroke-width="0.5" stroke-miterlimit="10"/>
<path d="M98.5863 59.6376C98.7736 62.5651 98.914 65.4925 99.0077 68.2795C99.0077 68.3263 99.0077 68.3965 99.0077 68.4434V68.5605C99.0545 68.8649 99.0545 69.1928 99.0545 69.4973C99.0545 69.7315 99.0779 69.9657 99.0779 70.1764C99.1481 72.6355 99.1482 74.9306 99.2418 76.8978C99.2652 77.4131 99.3354 77.8346 99.4291 78.2093C99.71 79.2632 100.155 79.8721 100.319 80.4576C100.366 80.6684 100.389 80.8792 100.319 81.0899C100.319 81.1368 100.295 81.207 100.272 81.2773C100.131 81.6286 99.7334 82.0033 99.1482 82.378C97.1348 83.6895 92.8504 85.1883 88.8471 86.2891C86.9975 86.8043 85.1949 87.2493 83.6965 87.5537C80.0209 88.3031 71.2416 89.6146 69.1579 87.905C68.9706 87.7645 68.8302 87.5772 68.7599 87.3898C68.3385 86.1954 68.2917 82.6825 68.3151 78.1625C68.3619 71.7924 68.5492 63.455 68.0108 57.0849C67.2382 47.3424 69.2282 38.2322 72.5994 32.4944C73.8168 30.4335 75.1981 28.8175 76.6964 27.7637C76.7199 27.7402 76.7433 27.7402 76.7667 27.7168C76.8369 27.67 76.9072 27.6466 76.9774 27.6466C77.0711 27.6466 77.1647 27.67 77.2583 27.6934C77.8202 27.8808 78.7567 28.4662 80.4891 29.2157C82.4089 30.0354 84.4925 30.3632 86.3654 30.1993C86.5761 30.1759 86.7868 30.1525 86.9975 30.129C87.021 30.129 87.0678 30.129 87.0912 30.1056C87.2083 30.0822 87.3253 30.0588 87.4424 30.0354L89.3621 31.5108C91.2584 33.0565 93.2953 34.9769 94.7702 37.5999C95.3555 38.6303 95.8471 39.7779 96.2217 41.0191C96.5729 42.2369 96.9006 43.806 97.1816 45.5625" fill="white"/>
<path d="M98.5863 59.6377C98.7736 62.5651 98.914 65.4925 99.0077 68.2795C99.0077 68.3263 99.0077 68.3965 99.0077 68.4434V68.5605C99.0545 68.8649 99.0545 69.1928 99.0545 69.4973C99.0545 69.7315 99.0779 69.9657 99.0779 70.1764C99.1481 72.6355 99.1482 74.9306 99.2418 76.8978C99.2652 77.4131 99.3354 77.8346 99.4291 78.2093C99.71 79.2632 100.155 79.8721 100.319 80.4576C100.366 80.6684 100.389 80.8792 100.319 81.0899C100.319 81.1368 100.295 81.207 100.272 81.2773C100.131 81.6286 99.7334 82.0033 99.1482 82.378C97.1348 83.6895 92.8504 85.1883 88.8471 86.2891C86.9975 86.8043 85.1949 87.2493 83.6965 87.5537C80.0209 88.3031 71.2416 89.6146 69.1579 87.905C68.9706 87.7645 68.8302 87.5772 68.7599 87.3898C68.3385 86.1954 68.2917 82.6825 68.3151 78.1625C68.3619 71.7924 68.5492 63.455 68.0108 57.0849C67.2382 47.3424 69.2282 38.2322 72.5994 32.4944C73.8168 30.4335 75.1981 28.8175 76.6964 27.7637C76.7199 27.7402 76.7433 27.7402 76.7667 27.7168C76.8369 27.67 76.9072 27.6466 76.9774 27.6466C77.0711 27.6466 77.1647 27.67 77.2583 27.6934C77.8202 27.8808 78.7567 28.4662 80.4891 29.2157C82.4089 30.0354 84.4925 30.3632 86.3654 30.1993C86.5761 30.1759 86.7868 30.1525 86.9975 30.129C87.021 30.129 87.0678 30.129 87.0912 30.1056C87.2083 30.0822 87.3253 30.0588 87.4424 30.0354L89.3621 31.5108C91.2584 33.0565 93.2953 34.9769 94.7702 37.5999C95.3555 38.6303 95.8471 39.7779 96.2217 41.0191C96.5729 42.2369 96.9006 43.806 97.1816 45.5625" stroke="black" stroke-width="0.5" stroke-miterlimit="10"/>
<path d="M108.583 144.299C108.583 144.299 110.433 145.728 114.225 145.915C115.209 145.962 116.098 145.915 116.871 145.798C118.954 145.541 120.265 144.932 120.265 144.932L130.473 102.097C130.473 102.097 119.423 92.4484 113.663 98.4438C112.914 99.2167 112.259 100.575 111.72 102.355C108.068 114.182 108.583 144.299 108.583 144.299Z" fill="#C5B322" stroke="black" stroke-width="0.5" stroke-miterlimit="10"/>
<path d="M124.702 58.7009C124.702 58.7009 128.853 59.0156 129.914 58.7009C130.976 58.3861 136.001 55.3647 137.811 55.9942C139.621 56.6236 144.21 61.376 143.055 63.5162C143.055 63.5162 140.932 63.5792 138.935 61.5334C136.937 59.4877 134.815 60.8725 135.033 61.1557C135.252 61.439 138.342 62.6664 137.811 63.2015C137.28 63.7365 133.223 63.6421 132.255 62.9812C131.288 62.3203 124.14 63.1386 124.14 63.1386L124.702 58.7009Z" fill="white" stroke="#263238" stroke-width="0.5" stroke-linecap="round" stroke-linejoin="round"/>
<path d="M130.59 63.7126C130.59 63.7126 107.436 62.3777 104.556 61.7688C103.76 61.6049 101.536 60.6213 98.6797 59.2629C91.2583 55.75 79.6929 49.778 78.4287 49.1691C78.2648 49.0988 78.1244 48.888 77.9839 48.5836C78.1244 47.4594 78.2414 46.3822 78.3117 45.3283C78.3585 44.5554 78.3819 43.7826 78.3819 43.0332C78.3819 41.8856 78.3585 40.7381 78.3117 39.5905C79.2247 36.5225 81.0508 34.0401 84.188 34.6256C84.188 34.6256 90.7666 40.2463 97.275 45.2346C101.934 48.8178 106.546 52.0731 108.653 52.7289C108.981 52.8225 109.332 52.9396 109.753 53.0567C115.934 54.7429 131.784 57.8343 131.784 57.8343C131.784 57.8343 132.275 62.0967 130.59 63.7126Z" fill="white" stroke="black" stroke-width="0.5" stroke-miterlimit="10"/>
<path d="M108.817 144.065C108.817 144.065 110.667 145.494 114.459 145.681C115.443 145.728 116.332 145.681 117.105 145.564C111.275 138.21 111.931 102.121 111.931 102.121C108.302 113.948 108.817 144.065 108.817 144.065Z" fill="#A2973E"/>
<path d="M28.2813 57.381V62.6972H22.9668C18.6591 62.6972 14.9133 59.7698 13.8597 55.6011C13.3447 53.5168 13.93 51.3856 15.4517 49.8868C16.5989 48.7392 18.1206 48.1303 19.6892 48.1303C20.1809 48.1303 20.6725 48.2006 21.1642 48.3176C25.3548 49.3481 28.2579 53.0718 28.2813 57.381Z" fill="#C5B322" stroke="black" stroke-width="0.5" stroke-miterlimit="10"/>
<path d="M28.3048 87.522C27.0874 87.522 25.9636 87.522 24.8867 87.522C16.3415 87.4751 11.6825 87.077 8.77951 84.1964C7.28117 82.6976 6.43834 80.6835 5.99352 77.92C5.47847 74.7115 5.43164 70.4725 5.43164 64.6879H27.9302C26.0338 67.6388 23.1776 69.7465 19.7829 70.6599C16.1542 71.6435 12.3615 71.1517 9.10727 69.2781C8.66245 69.0205 8.10057 69.1845 7.84304 69.6294C7.58552 70.0744 7.7494 70.6365 8.19422 70.8941C10.629 72.2993 13.3448 73.0019 16.0839 73.0019C17.4886 73.0019 18.8933 72.8145 20.2746 72.4398C21.5856 72.0885 22.8265 71.5733 23.9736 70.9175C25.6124 69.9807 27.064 68.7863 28.2814 67.3343V87.3112C28.2814 87.358 28.2814 87.4049 28.3048 87.4517C28.2814 87.4517 28.3048 87.4985 28.3048 87.522Z" fill="#C5B322" stroke="black" stroke-width="0.5" stroke-miterlimit="10"/>
<path d="M28.2814 39.9569C28.2814 40.0037 28.2814 40.0506 28.2814 40.0974V51.1983C26.783 48.9032 24.4419 47.1935 21.6325 46.4909C18.9167 45.8118 16.1307 46.5846 14.1642 48.5753C12.1976 50.5425 11.425 53.3529 12.1039 56.0461C12.8297 58.9267 14.609 61.3155 16.9736 62.8144H5.45508C5.45508 52.0648 5.54871 46.5612 8.80292 43.3059C12.0337 40.0506 17.512 39.9569 28.2814 39.9569Z" fill="#C5B322" stroke="black" stroke-width="0.5" stroke-miterlimit="10"/>
<path d="M44.529 55.6011C43.4755 59.7932 39.753 62.6972 35.4453 62.6972H30.1309V57.381C30.1309 53.0718 33.0573 49.3247 37.2246 48.2942C37.3416 48.2708 37.4587 48.2474 37.5758 48.224C39.5423 47.8493 41.5089 48.4582 42.937 49.8868C44.4588 51.3856 45.044 53.5168 44.529 55.6011Z" fill="#C5B322" stroke="black" stroke-width="0.5" stroke-miterlimit="10"/>
<path d="M52.6762 55.8353C52.6294 55.8588 52.5592 55.8588 52.5124 55.8822C51.1779 56.2335 50.0541 57.1 49.3518 58.3178C48.5792 59.6761 48.4387 61.2218 48.9304 62.6504H41.6962C43.9437 61.1516 45.6293 58.833 46.3317 56.0461C47.0106 53.3294 46.238 50.5425 44.2715 48.5753C42.5624 46.8657 40.2213 46.046 37.8567 46.3036C37.5055 46.3504 37.1543 46.3973 36.8032 46.4909C33.9938 47.1935 31.6526 48.9266 30.1543 51.1983V40.0974C30.1543 40.0506 30.1543 40.0037 30.1543 39.9569C33.1276 39.9569 35.7028 39.9569 37.9503 40.0506C43.7798 40.2614 47.315 40.9639 49.6561 43.3059C50.8501 44.5003 51.6461 45.9991 52.1612 48.1069C52.1846 48.2006 52.208 48.3177 52.2314 48.4348C52.3485 48.9734 52.4421 49.5355 52.5124 50.0976C52.606 50.8001 52.6528 51.5261 52.6528 52.2287L52.6762 55.8353Z" fill="#C5B322" stroke="black" stroke-width="0.5" stroke-miterlimit="10"/>
<path d="M52.9805 73.0487C52.9805 73.2126 52.9571 73.4 52.9571 73.5639C52.8868 74.7817 52.7932 75.859 52.6762 76.8192C52.2313 80.3088 51.3417 82.3697 49.7497 83.9622C47.3149 86.3978 43.6159 87.0536 37.3884 87.2409H37.3182C36.6626 87.2644 35.9837 87.2643 35.2813 87.2878H35.2345C33.666 87.3112 31.9569 87.3112 30.084 87.3112V87.2878V67.3578C30.1308 67.4046 30.1776 67.4514 30.2244 67.4983L30.2479 67.5217C30.3649 67.6622 30.5054 67.8027 30.6459 67.9432C30.7863 68.0838 30.9034 68.2243 31.0439 68.3648C31.1843 68.5053 31.3248 68.6458 31.4653 68.7629C31.5823 68.88 31.7228 68.9971 31.8399 69.1142C31.9101 69.1611 31.9569 69.2313 32.0272 69.2781C32.1208 69.3484 32.191 69.4187 32.2847 69.4889C32.3315 69.5358 32.4017 69.5826 32.472 69.6294C32.5656 69.6997 32.6593 69.77 32.7529 69.8402C32.8466 69.9105 32.9402 69.9807 33.0338 70.051C33.0807 70.0978 33.1275 70.1213 33.1977 70.1681C33.2914 70.2384 33.385 70.2852 33.4787 70.3555C33.5723 70.4257 33.6659 70.4725 33.7596 70.5428C33.8298 70.5896 33.9235 70.6365 34.0171 70.7068C34.1108 70.7536 34.181 70.8004 34.2747 70.8473C35.3048 71.4328 36.4051 71.9246 37.5523 72.2759C37.7396 72.3227 37.9034 72.3695 38.0673 72.4398C39.4486 72.8145 40.8533 73.0019 42.258 73.0019C44.9972 73.0019 47.7129 72.2758 50.1477 70.8941C50.5925 70.6365 50.733 70.0744 50.4989 69.6294C50.2413 69.1845 49.6795 69.0205 49.2347 69.2781C45.9805 71.1517 42.1878 71.6435 38.559 70.6599C35.1409 69.7465 32.2613 67.6154 30.3883 64.6411C30.3649 64.6177 30.3649 64.5942 30.3415 64.5708H35.4218C35.8667 64.5708 36.2881 64.5474 36.7095 64.5006C36.7797 64.524 36.8499 64.524 36.9202 64.524H49.6326C49.7263 64.524 49.7965 64.5006 49.8668 64.5006L51.7397 67.7325C51.9504 68.1072 52.2547 68.4116 52.6059 68.6224C52.6996 68.6693 52.7932 68.7395 52.8869 68.7629L52.9805 73.0487Z" fill="#C5B322" stroke="black" stroke-width="0.5" stroke-miterlimit="10"/>
<path d="M57.0306 59.1375C56.3751 58.0134 55.2045 57.3342 53.8934 57.3342C53.8466 57.3342 53.7764 57.3342 53.7295 57.3342C53.3784 57.3576 53.0506 57.4044 52.7228 57.5215C52.6526 57.545 52.6058 57.5684 52.5356 57.5918C51.8098 57.8963 51.1777 58.4115 50.7563 59.1375C50.1008 60.2616 50.1008 61.62 50.7563 62.7441L52.5824 65.9292L52.8633 66.3975V66.421L53.1443 66.9128C53.3316 67.2406 53.6359 67.3109 53.7998 67.3343C53.8232 67.3343 53.8466 67.3343 53.87 67.3343C54.0105 67.3343 54.3851 67.2875 54.5958 66.9128L56.9838 62.7441C57.6627 61.5966 57.6627 60.2616 57.0306 59.1375ZM53.8934 63.9853C53.87 63.9853 53.8232 63.9853 53.7998 63.9853C53.4486 63.9619 53.1208 63.8682 52.8399 63.7043C52.7463 63.6575 52.676 63.6106 52.6058 63.5638C52.0439 63.1657 51.6928 62.5099 51.6928 61.7605C51.6928 61.0345 52.0439 60.3787 52.5824 59.9806C52.6526 59.9338 52.7229 59.8869 52.7931 59.8401C53.074 59.6761 53.4252 59.559 53.7764 59.5356C53.8232 59.5356 53.87 59.5356 53.9169 59.5356C55.1343 59.5356 56.141 60.5427 56.141 61.7605C56.141 62.9783 55.1108 63.9853 53.8934 63.9853Z" fill="#C5B322" stroke="black" stroke-width="0.5" stroke-miterlimit="10"/>
<path d="M48.2979 103.338V110.13C48.2979 111.301 48.6256 112.285 49.0002 112.285H63.7729C64.1709 112.285 64.4752 111.325 64.4752 110.13V103.338C64.4752 102.167 64.1475 101.184 63.7729 101.184H49.0002C48.6256 101.207 48.2979 102.167 48.2979 103.338Z" fill="#C5B322" stroke="black" stroke-width="0.5" stroke-miterlimit="10"/>
<path d="M50.2881 112.285H94.4657C96.0577 112.285 97.3688 111.325 97.3688 110.13V103.338C97.3688 102.167 96.0577 101.184 94.4657 101.184H64.1945C61.5724 103.947 56.6326 108.608 50.2881 112.285Z" fill="#A2973E" stroke="black" stroke-width="0.5" stroke-miterlimit="10"/>
<path d="M164.311 130.432C164.194 131.134 164.1 131.79 163.983 132.446C164.006 132.422 164.053 132.422 164.076 132.399C167.331 130.853 170.983 129.987 174.822 129.987C187.816 129.987 198.538 139.94 199.756 152.61C199.896 153.992 201.02 155.046 202.425 155.046H202.565C205.14 155.046 207.107 152.75 206.732 150.221C204.742 137.059 194.792 126.45 181.939 123.57C181.893 123.546 181.846 123.546 181.799 123.546L161.408 80.5246C159.488 77.8782 157.006 75.8407 154.22 74.5292C157.685 80.3841 167.284 99.0729 165.06 124.272C164.896 126.005 164.685 127.762 164.428 129.565C164.404 129.846 164.357 130.127 164.311 130.432Z" fill="black"/>
<path d="M165.202 161.409C167.098 164.781 170.727 167.053 174.871 167.053C181.005 167.053 185.992 162.088 185.992 155.929C185.992 151.315 183.159 147.334 179.155 145.671C178.149 150.472 175.058 159.395 165.202 161.409Z" fill="#A2973E" stroke="black" stroke-width="0.5" stroke-miterlimit="10"/>
</svg>
