<svg width="246" height="210" viewBox="0 0 246 210" fill="none" xmlns="http://www.w3.org/2000/svg">
<g id="Group 67">
<path id="Vector" d="M129.346 168.799C129.346 168.799 129.926 178.104 131.72 178.242C131.968 178.27 140.828 178.27 140.828 178.27L152.173 178.214C152.173 178.214 152.09 175.481 148.778 174.901C145.466 174.321 139.918 172.002 137.903 167.612C135.805 162.973 129.346 168.799 129.346 168.799Z" fill="white" stroke="#263238" stroke-width="0.5" stroke-miterlimit="10"/>
<g id="Group 66">
<path id="Vector_2" d="M169.565 92.1766L179.253 88.4767C180.578 88.4767 183.09 89.664 183.09 88.3386L181.655 64.6481C181.655 63.3228 180.578 62.2459 179.253 62.2459H173.015C171.69 62.2459 166.418 64.7862 166.777 69.5077L165.121 93.3915C165.121 94.7444 168.24 92.1766 169.565 92.1766Z" fill="#A2973E" stroke="#263238" stroke-width="0.5" stroke-miterlimit="10"/>
<path id="Vector_3" d="M197.526 72.8762C197.526 68.0995 193.744 64.2063 189.08 64.2063C184.415 64.2063 180.633 68.0719 180.633 72.8762C180.633 77.653 184.415 81.5462 189.08 81.5462C193.717 81.5462 197.526 77.6806 197.526 72.8762Z" fill="white" stroke="#263238" stroke-width="0.5" stroke-miterlimit="10"/>
<g id="Group">
<path id="Vector_4" d="M156.454 178.103L169.316 183.294C178.232 165.954 187.341 157.45 195.124 153.253C209.146 145.687 218.89 152.093 215.605 146.157L191.564 95.4346C189.3 92.3145 186.374 89.9124 183.09 88.3661C179.529 86.6819 175.555 85.964 171.607 86.3229C167.026 86.7371 164.017 91.3758 165.48 95.7383C168.626 105.154 169.841 114.597 169.841 123.598C169.841 153.501 156.454 178.103 156.454 178.103Z" fill="#C5B322" stroke="#263238" stroke-width="0.5" stroke-miterlimit="10"/>
</g>
<path id="Vector_5" d="M180.606 72.4068C180.606 73.2351 180.689 74.0635 180.827 74.8642C181.986 81.0492 187.396 85.7155 193.91 85.7155V59.1258C186.568 59.0982 180.606 65.0346 180.606 72.4068Z" fill="#C5B322" stroke="#263238" stroke-width="0.5" stroke-miterlimit="10"/>
<g id="Vector_6">
<path d="M194.269 153.722C194.131 154.55 192.971 153.805 192.861 154.578C192.833 154.606 192.889 154.55 192.861 154.578C197.609 150.188 209.477 148.31 215.771 146.184C215.715 146.157 215.66 146.157 215.605 146.157L191.564 95.4347C189.3 92.3146 186.375 89.9124 183.09 88.3662C187.175 95.269 198.492 117.303 195.87 147.013C195.676 149.056 195.428 151.127 195.124 153.253C195.069 153.584 194.324 153.391 194.269 153.722Z" fill="#A2973E"/>
<path d="M192.861 154.578C192.971 153.805 194.131 154.55 194.269 153.722C194.324 153.391 195.069 153.584 195.124 153.253C195.428 151.127 195.676 149.056 195.87 147.013C198.492 117.303 187.175 95.269 183.09 88.3662C186.375 89.9124 189.3 92.3146 191.564 95.4347L215.605 146.157C215.66 146.157 215.715 146.157 215.771 146.184C209.477 148.31 197.609 150.188 192.861 154.578ZM192.861 154.578C192.833 154.606 192.889 154.55 192.861 154.578Z" stroke="#263238" stroke-width="0.5"/>
</g>
<path id="Vector_7" d="M91.0375 18.1231C91.0375 18.1231 92.8868 21.6573 93.4389 22.1819C93.9909 22.7065 94.819 26.1303 93.8253 28.3668C92.804 30.6034 91.4791 32.8951 91.4791 32.8951L101.968 37.2025C101.968 37.2025 103.569 32.3153 104.424 30.8795C105.087 29.8579 105.86 28.9467 106.743 28.1184C106.743 28.1184 102.962 26.1579 101.94 22.7618C100.919 19.3656 99.9805 15.0858 99.9805 15.0858L91.0375 18.1231Z" fill="white" stroke="#263238" stroke-width="0.5" stroke-miterlimit="10"/>
<path id="Vector_8" d="M100.643 25.9923L103.928 31.7354L106.771 28.146L100.643 25.9923Z" fill="#263238" stroke="#263238" stroke-width="0.5" stroke-miterlimit="10"/>
<path id="Vector_9" d="M111.794 12.6008C111.794 12.6008 112.07 14.8373 112.236 15.4724C112.401 16.1074 114.941 17.0462 115.162 17.9574C115.382 18.8686 113.312 20.8289 113.312 20.8289C113.312 20.8289 113.202 26.793 112.512 28.0631C111.822 29.3332 104.618 29.1952 102.575 28.0079C100.533 26.8482 97.8828 21.2983 97.3583 19.5588C96.8339 17.8193 96.4199 15.5828 96.4199 15.5828L110.883 11.5516L111.794 12.6008Z" fill="white" stroke="#263238" stroke-width="0.5" stroke-miterlimit="10"/>
<path id="Vector_10" d="M100.891 15.0582C100.753 15.6381 100.919 16.2731 101.305 16.7425C101.83 17.1843 102.437 17.488 103.127 17.5984L101.333 18.1783V18.8133C99.8978 18.6201 98.6557 17.8193 97.9104 16.5768C96.6131 14.4784 96.7511 17.8193 96.7511 17.8193L97.6068 20.6633C97.0824 21.7401 96.3095 22.7065 95.371 23.452L93.991 24.4184C93.991 24.4184 91.2583 17.6813 91.0375 16.1074C90.8167 14.5612 95.5366 12.7665 96.6959 12.8217C97.8 12.9045 100.477 13.3739 100.891 15.0582Z" fill="#263238" stroke="#263238" stroke-width="0.5" stroke-miterlimit="10"/>
<path id="Vector_11" d="M109.779 15.9418C109.945 16.5768 109.835 17.1291 109.586 17.2119C109.338 17.2671 109.007 16.7977 108.841 16.1627C108.703 15.5276 108.786 14.9754 109.034 14.9202C109.31 14.865 109.641 15.3343 109.779 15.9418Z" fill="#263238" stroke="#263238" stroke-width="0.5" stroke-miterlimit="10"/>
<path id="Vector_12" d="M108.371 21.464C109.365 22.32 110.718 22.5409 111.932 22.0439" stroke="#263238" stroke-width="0.5" stroke-miterlimit="10"/>
<path id="Vector_13" d="M90.9823 18.8409C90.9823 18.8409 101.775 15.8865 105.887 14.5611C110 13.2358 111.794 12.6007 111.794 12.6007C111.794 12.6007 108.813 4.64869 107.985 2.55023C107.157 0.451772 97.7172 -0.459387 94.0185 1.11446C90.3199 2.6883 87.2008 7.3546 87.5045 10.1157C87.7805 12.8493 90.9823 18.8409 90.9823 18.8409Z" fill="#C5B322" stroke="#263238" stroke-width="0.5" stroke-miterlimit="10"/>
<path id="Vector_14" d="M105.087 14.9201C105.087 14.9201 109.476 11.0269 111.463 10.5575C113.45 10.0882 121.289 8.01731 120.765 10.2814C120.24 12.5179 113.505 13.2635 110.662 13.9537C108.841 14.3679 106.964 14.6993 105.087 14.9201Z" fill="white" stroke="#263238" stroke-width="0.5" stroke-miterlimit="10"/>
<g id="Group_2">
<path id="Vector_15" d="M54.5755 138.591L56.0108 137.404L36.7446 112.195L29.789 111.919L54.5755 138.591Z" fill="black" stroke="white" stroke-width="0.5"/>
</g>
<path id="Vector_16" d="M90.2371 189.644H176.217C177.156 189.644 177.928 188.871 177.928 187.933V179.815C177.928 178.876 177.156 178.103 176.217 178.103H100.257C99.3181 178.103 98.5453 178.876 98.5453 179.815L90.2371 189.644Z" fill="black" stroke="white" stroke-width="0.5"/>
<path id="Vector_17" d="M89.4917 183.294C89.4917 169.102 77.9817 157.588 63.7944 157.588C49.607 157.588 38.097 169.102 38.097 183.294C38.097 197.486 49.607 209 63.7944 209C77.9817 209 89.4917 197.486 89.4917 183.294Z" fill="black" stroke="white" stroke-width="0.5"/>
<path id="Vector_18" d="M76.9054 183.294C76.9054 176.06 71.0538 170.178 63.7945 170.178C56.5628 170.178 50.6836 176.032 50.6836 183.294C50.6836 190.528 56.5352 196.409 63.7945 196.409C71.0262 196.382 76.9054 190.528 76.9054 183.294Z" fill="#A2973E" stroke="#263238" stroke-width="0.5"/>
<g id="Group_3">
<path id="Vector_19" d="M195.87 147.013C199.486 145.853 203.35 145.245 207.352 145.245C210.168 145.245 212.928 145.549 215.577 146.157C230.786 149.525 242.6 162.061 244.946 177.633C245.388 180.616 243.069 183.321 240.033 183.321H239.867C238.239 183.321 236.886 182.079 236.721 180.45C235.258 165.485 222.644 153.777 207.324 153.777C202.743 153.777 198.409 154.827 194.545 156.677C184.636 161.453 177.79 171.614 177.79 183.321H169.289C169.317 166.313 180.495 151.9 195.87 147.013Z" fill="black" stroke="white" stroke-width="0.5"/>
</g>
<path id="Vector_20" d="M4.39505 113.078H68.9835C70.8605 113.078 72.3785 111.56 72.3785 109.682V107.363C72.3785 105.485 70.8605 103.967 68.9835 103.967H4.39505C2.51812 103.967 1 105.485 1 107.363V109.682C1 111.56 2.51812 113.078 4.39505 113.078Z" fill="black" stroke="white" stroke-width="0.5"/>
<path id="Vector_21" d="M207.352 208.945C221.544 208.945 233.049 197.436 233.049 183.239C233.049 169.042 221.544 157.532 207.352 157.532C193.16 157.532 181.655 169.042 181.655 183.239C181.655 197.436 193.16 208.945 207.352 208.945Z" fill="black" stroke="white" stroke-width="0.5"/>
<path id="Vector_22" d="M194.269 183.294C194.269 185.503 194.821 187.574 195.787 189.396C195.842 189.506 195.925 189.644 195.98 189.755C198.216 193.731 202.494 196.409 207.38 196.409C214.611 196.409 220.49 190.556 220.49 183.294C220.49 177.854 217.151 173.16 212.431 171.2C212.376 171.172 212.32 171.145 212.293 171.145C210.775 170.537 209.146 170.206 207.407 170.206C200.12 170.178 194.269 176.06 194.269 183.294Z" fill="#C5B322" stroke="#263238" stroke-width="0.5" stroke-miterlimit="10"/>
<path id="Vector_23" d="M113.257 131.523C113.257 131.523 106.633 157.836 128.99 182.107L73.9519 178.103L80.9628 124.979L113.257 131.523Z" fill="black" stroke="white" stroke-width="0.5"/>
<path id="Vector_24" d="M12.0132 186.248C12.0132 187.187 12.3997 188.043 13.0069 188.65C13.6141 189.258 14.4698 189.644 15.4083 189.644H97.8276C99.7045 189.644 101.223 188.126 101.223 186.248L100.119 132.323L72.351 130.611C35.3921 130.639 12.0132 149.277 12.0132 186.248Z" fill="black" stroke="white" stroke-width="0.5"/>
<g id="Group_4">
<path id="Vector_25" d="M159.628 74.2016C159.684 74.2016 160.236 74.0911 160.291 74.0911L174.92 70.0323C175.499 69.9218 175.914 69.2039 175.803 68.4308C175.72 67.6577 175.168 67.1331 174.589 67.2436L159.932 70.1151C159.352 70.2256 158.883 71.1091 158.745 71.8822C158.524 73.0971 159.104 74.2016 159.628 74.2016Z" fill="#2B478B" stroke="#263238" stroke-width="0.5"/>
</g>
<path id="Vector_26" d="M18.5273 189.672H97.8276C97.8276 189.672 102.658 160.294 84.8271 150.381C80.5212 147.979 75.1388 147.178 69.2596 147.758C50.7111 149.553 27.3599 165.264 18.5273 189.672Z" fill="#A2973E" stroke="#263238" stroke-width="0.5" stroke-miterlimit="10"/>
<path id="Vector_27" d="M18.5273 189.672H51.4564C71.3298 179.594 70.1152 155.241 69.232 147.758C50.7111 149.553 27.3599 165.264 18.5273 189.672Z" fill="#C5B322" stroke="#263238" stroke-width="0.5" stroke-miterlimit="10"/>
<path id="Vector_28" d="M82.0392 97.7264C82.0392 97.7264 82.8949 112.664 86.2899 116.916C89.685 121.168 154.853 119.512 154.853 119.512C154.853 119.512 155.129 109.931 152.59 107.473C150.05 105.016 138.154 97.9473 100.146 93.9161L82.0392 97.7264Z" fill="#C5B322" stroke="#263238" stroke-width="0.5" stroke-miterlimit="10"/>
<g id="Vector_29">
<path d="M117.232 69.4525C117.453 72.9039 117.618 76.3553 117.729 79.641C117.729 79.6963 117.729 79.7791 117.729 79.8343V79.9724C117.784 80.3313 117.784 80.7179 117.784 81.0768C117.784 81.3529 117.811 81.629 117.811 81.8775C117.894 84.7767 117.894 87.4826 118.005 89.802C118.032 90.4094 118.115 90.9064 118.225 91.3482C118.557 92.5907 119.081 93.3086 119.274 93.9989C119.33 94.2474 119.357 94.4959 119.274 94.7444C119.274 94.7996 119.247 94.8825 119.219 94.9653C119.054 95.3795 118.584 95.8212 117.894 96.263C115.52 97.8093 110.469 99.5764 105.749 100.874C103.569 101.482 101.443 102.006 99.677 102.365C95.3435 103.249 84.9927 104.795 82.5362 102.779C82.3154 102.614 82.1497 102.393 82.0669 102.172C81.5701 100.764 81.5149 96.622 81.5425 91.293C81.5977 83.7827 81.8185 73.9531 81.1837 66.4428C80.2728 54.9565 82.619 44.2157 86.5936 37.451C88.0289 35.0212 89.6574 33.116 91.424 31.8735C91.4516 31.8459 91.4792 31.8459 91.5068 31.8183C91.5896 31.763 91.6724 31.7354 91.7552 31.7354C91.8656 31.7354 91.976 31.763 92.0864 31.7907C92.7489 32.0115 93.853 32.7018 95.8955 33.5854C98.1589 34.5518 100.615 34.9383 102.824 34.7451C103.072 34.7175 103.32 34.6898 103.569 34.6622C103.596 34.6622 103.652 34.6622 103.679 34.6346C103.817 34.607 103.955 34.5794 104.093 34.5518L106.357 36.2913C108.592 38.1136 110.994 40.3778 112.733 43.4702C113.423 44.6851 114.002 46.0381 114.444 47.5015C114.858 48.9373 115.244 50.7872 115.576 52.8581" fill="white"/>
<path d="M117.232 69.4525C117.453 72.9039 117.618 76.3553 117.729 79.641C117.729 79.6963 117.729 79.7791 117.729 79.8343V79.9724C117.784 80.3313 117.784 80.7179 117.784 81.0768C117.784 81.3529 117.811 81.629 117.811 81.8775C117.894 84.7767 117.894 87.4826 118.005 89.802C118.032 90.4094 118.115 90.9064 118.225 91.3482C118.557 92.5907 119.081 93.3086 119.274 93.9989C119.33 94.2474 119.357 94.4959 119.274 94.7444C119.274 94.7996 119.247 94.8825 119.219 94.9653C119.054 95.3795 118.584 95.8212 117.894 96.263C115.52 97.8093 110.469 99.5764 105.749 100.874C103.569 101.482 101.443 102.006 99.677 102.365C95.3435 103.249 84.9927 104.795 82.5362 102.779C82.3154 102.614 82.1497 102.393 82.0669 102.172C81.5701 100.764 81.5149 96.622 81.5425 91.293C81.5977 83.7827 81.8185 73.9531 81.1837 66.4428C80.2728 54.9565 82.619 44.2157 86.5936 37.451C88.0289 35.0212 89.6574 33.116 91.424 31.8735C91.4516 31.8459 91.4792 31.8459 91.5068 31.8183C91.5896 31.763 91.6724 31.7354 91.7552 31.7354C91.8656 31.7354 91.976 31.763 92.0864 31.7907C92.7489 32.0115 93.853 32.7018 95.8955 33.5854C98.1589 34.5518 100.615 34.9383 102.824 34.7451C103.072 34.7175 103.32 34.6898 103.569 34.6622C103.596 34.6622 103.652 34.6622 103.679 34.6346C103.817 34.607 103.955 34.5794 104.093 34.5518L106.357 36.2913C108.592 38.1136 110.994 40.3778 112.733 43.4702C113.423 44.6851 114.002 46.0381 114.444 47.5015C114.858 48.9373 115.244 50.7872 115.576 52.8581" stroke="#263238" stroke-width="0.5" stroke-miterlimit="10"/>
</g>
<path id="Vector_30" d="M129.018 169.267C129.018 169.267 131.198 170.952 135.67 171.172C136.829 171.228 137.878 171.172 138.789 171.034C141.245 170.731 142.791 170.013 142.791 170.013L154.826 119.512C154.826 119.512 141.798 108.136 135.007 115.204C134.124 116.116 133.351 117.717 132.716 119.815C128.411 133.759 129.018 169.267 129.018 169.267Z" fill="#C5B322" stroke="#263238" stroke-width="0.5" stroke-miterlimit="10"/>
<path id="Vector_31" d="M148.022 68.348C148.022 68.348 152.916 68.7191 154.167 68.348C155.418 67.9769 161.343 64.4147 163.477 65.1569C165.612 65.899 171.021 71.502 169.66 74.0252C169.66 74.0252 167.157 74.0995 164.802 71.6876C162.447 69.2757 159.945 70.9083 160.202 71.2423C160.46 71.5762 164.103 73.0234 163.477 73.6542C162.852 74.285 158.068 74.1737 156.927 73.3944C155.786 72.6152 147.36 73.58 147.36 73.58L148.022 68.348Z" fill="white" stroke="#263238" stroke-width="0.5" stroke-linecap="round" stroke-linejoin="round"/>
<path id="Vector_32" d="M154.964 74.2568C154.964 74.2568 127.665 72.683 124.27 71.9651C123.332 71.7718 120.71 70.6121 117.342 69.0107C108.592 64.869 94.957 57.8281 93.4665 57.1102C93.2732 57.0273 93.1076 56.7788 92.942 56.4199C93.1076 55.0945 93.2456 53.8244 93.3285 52.5819C93.3837 51.6708 93.4113 50.7596 93.4113 49.876C93.4113 48.5231 93.3837 47.1701 93.3285 45.8172C94.4049 42.2001 96.5579 39.2733 100.257 39.9636C100.257 39.9636 108.013 46.5903 115.686 52.4715C121.179 56.696 126.616 60.534 129.101 61.3071C129.487 61.4176 129.901 61.5556 130.398 61.6937C137.685 63.6817 156.371 67.3263 156.371 67.3263C156.371 67.3263 156.951 72.3516 154.964 74.2568Z" fill="white" stroke="#263238" stroke-width="0.5" stroke-miterlimit="10"/>
<path id="Vector_33" d="M129.294 168.991C129.294 168.991 131.474 170.675 135.946 170.896C137.105 170.952 138.154 170.896 139.065 170.758C132.192 162.088 132.965 119.539 132.965 119.539C128.687 133.483 129.294 168.991 129.294 168.991Z" fill="#A2973E" stroke="#263238" stroke-width="0.5"/>
<g id="Group_5">
<path id="Vector_34" d="M34.3434 66.7919V73.0597H28.0777C22.999 73.0597 18.5827 69.6083 17.3406 64.6935C16.7333 62.2361 17.4234 59.7234 19.2175 57.9563C20.57 56.6034 22.3641 55.8855 24.2135 55.8855C24.7931 55.8855 25.3727 55.9683 25.9524 56.1063C30.8931 57.3212 34.3158 61.7115 34.3434 66.7919Z" fill="#C5B322" stroke="#263238" stroke-width="0.5" stroke-miterlimit="10"/>
<path id="Vector_35" d="M34.3708 102.328C32.9355 102.328 31.6107 102.328 30.341 102.328C20.2663 102.272 14.7735 101.803 11.3508 98.4069C9.58431 96.6398 8.59064 94.2652 8.0662 91.007C7.45896 87.2243 7.40375 82.2266 7.40375 75.4067H33.9292C31.6935 78.8857 28.326 81.3707 24.3237 82.4475C20.0454 83.6072 15.5739 83.0274 11.7373 80.8185C11.2128 80.5147 10.5504 80.708 10.2468 81.2326C9.94314 81.7572 10.1364 82.4199 10.6608 82.7236C13.5314 84.3803 16.7332 85.2087 19.9626 85.2087C21.6187 85.2087 23.2749 84.9878 24.9034 84.546C26.4491 84.1318 27.912 83.5244 29.2645 82.7513C31.1966 81.6468 32.9079 80.2386 34.3432 78.5267V102.079C34.3432 102.134 34.3432 102.19 34.3708 102.245C34.3432 102.245 34.3708 102.3 34.3708 102.328Z" fill="#C5B322" stroke="#263238" stroke-width="0.5" stroke-miterlimit="10"/>
<path id="Vector_36" d="M34.3433 46.2491C34.3433 46.3044 34.3433 46.3596 34.3433 46.4148V59.5026C32.5767 56.7966 29.8165 54.781 26.5043 53.9527C23.3025 53.152 20.0179 54.0631 17.6993 56.4101C15.3807 58.7294 14.4699 62.0428 15.2703 65.2181C16.126 68.6143 18.2237 71.4306 21.0115 73.1977H7.4314C7.4314 60.5242 7.54178 54.0355 11.3784 50.1975C15.1875 46.3596 21.6464 46.2491 34.3433 46.2491Z" fill="#C5B322" stroke="#263238" stroke-width="0.5" stroke-miterlimit="10"/>
<path id="Vector_37" d="M53.4988 64.6935C52.2567 69.6359 47.8681 73.0597 42.7893 73.0597H36.5237V66.7919C36.5237 61.7114 39.9739 57.2936 44.887 56.0787C45.0251 56.0511 45.1631 56.0235 45.3011 55.9959C47.6196 55.5541 49.9382 56.272 51.6219 57.9563C53.416 59.7234 54.1061 62.2361 53.4988 64.6935Z" fill="#C5B322" stroke="#263238" stroke-width="0.5" stroke-miterlimit="10"/>
<path id="Vector_38" d="M63.1045 64.9696C63.0492 64.9972 62.9665 64.9972 62.9113 65.0248C61.3379 65.439 60.0131 66.4606 59.185 67.8964C58.2741 69.4978 58.1085 71.3202 58.6881 73.0045H50.1591C52.8089 71.2374 54.7963 68.5038 55.6243 65.2181C56.4248 62.0152 55.5139 58.7294 53.1954 56.4101C51.1804 54.3945 48.4202 53.4281 45.6324 53.7318C45.2184 53.787 44.8044 53.8422 44.3903 53.9527C41.0781 54.781 38.3179 56.8243 36.5514 59.5026V46.4148C36.5514 46.3596 36.5514 46.3044 36.5514 46.2491C40.0569 46.2491 43.0931 46.2491 45.7428 46.3596C52.6157 46.6081 56.7836 47.4364 59.5438 50.1975C60.9515 51.6057 61.89 53.3729 62.4972 55.8579C62.5248 55.9683 62.5524 56.1063 62.58 56.2444C62.718 56.8795 62.8284 57.5422 62.9113 58.2048C63.0217 59.0332 63.0769 59.8891 63.0769 60.7175L63.1045 64.9696Z" fill="#C5B322" stroke="#263238" stroke-width="0.5" stroke-miterlimit="10"/>
<path id="Vector_39" d="M63.4634 85.2639C63.4634 85.4572 63.4357 85.6781 63.4357 85.8713C63.3529 87.3071 63.2425 88.5773 63.1045 89.7093C62.5801 93.8234 61.5312 96.2532 59.6543 98.1308C56.7837 101.002 52.4226 101.775 45.0805 101.996H44.9977C44.2248 102.024 43.4244 102.024 42.5963 102.052H42.5411C40.6918 102.079 38.6768 102.079 36.4687 102.079V102.052V78.5543C36.5239 78.6096 36.5791 78.6648 36.6343 78.72L36.6619 78.7476C36.7999 78.9133 36.9655 79.079 37.1311 79.2446C37.2968 79.4103 37.4347 79.576 37.6004 79.7416C37.766 79.9073 37.9316 80.073 38.0972 80.211C38.2352 80.3491 38.4008 80.4871 38.5388 80.6252C38.6216 80.6804 38.6769 80.7632 38.7597 80.8185C38.8701 80.9013 38.9529 80.9841 39.0633 81.067C39.1185 81.1222 39.2013 81.1774 39.2841 81.2326C39.3945 81.3155 39.5049 81.3983 39.6153 81.4811C39.7257 81.564 39.8361 81.6468 39.9465 81.7296C40.0017 81.7849 40.057 81.8125 40.1398 81.8677C40.2502 81.9505 40.3606 82.0058 40.471 82.0886C40.5814 82.1714 40.6918 82.2266 40.8022 82.3095C40.885 82.3647 40.9954 82.4199 41.1058 82.5028C41.2162 82.558 41.299 82.6132 41.4094 82.6684C42.6239 83.3587 43.9212 83.9385 45.2737 84.3527C45.4945 84.4079 45.6877 84.4632 45.8809 84.546C47.5094 84.9878 49.1656 85.2087 50.8217 85.2087C54.0511 85.2087 57.2529 84.3527 60.1235 82.7236C60.648 82.4199 60.8136 81.7572 60.5375 81.2326C60.2339 80.708 59.5715 80.5147 59.0471 80.8185C55.2104 83.0274 50.7389 83.6072 46.4606 82.4475C42.4307 81.3707 39.0357 78.8581 36.8275 75.3514C36.7999 75.3238 36.7999 75.2962 36.7723 75.2686H42.7619C43.2864 75.2686 43.7832 75.241 44.28 75.1858C44.3628 75.2134 44.4456 75.2134 44.5284 75.2134H59.5163C59.6267 75.2134 59.7095 75.1858 59.7923 75.1858L62.0005 78.9961C62.2489 79.4379 62.6077 79.7969 63.0217 80.0454C63.1321 80.1006 63.2426 80.1834 63.353 80.211L63.4634 85.2639Z" fill="#C5B322" stroke="#263238" stroke-width="0.5" stroke-miterlimit="10"/>
<path id="Vector_40" d="M68.2384 68.8628C67.4655 67.5374 66.0854 66.7367 64.5397 66.7367C64.4845 66.7367 64.4017 66.7367 64.3465 66.7367C63.9325 66.7643 63.546 66.8195 63.1596 66.9576C63.0768 66.9852 63.0216 67.0128 62.9388 67.0404C62.0832 67.3994 61.3379 68.0068 60.8411 68.8628C60.0682 70.1881 60.0682 71.7896 60.8411 73.1149L62.994 76.8701L63.3253 77.4223V77.4499L63.6565 78.0297C63.8773 78.4163 64.2361 78.4991 64.4293 78.5267C64.4569 78.5267 64.4845 78.5267 64.5121 78.5267C64.6777 78.5267 65.1194 78.4715 65.3678 78.0297L68.1832 73.1149C68.9836 71.762 68.9836 70.1881 68.2384 68.8628ZM64.5397 74.5783C64.5121 74.5783 64.4569 74.5783 64.4293 74.5783C64.0153 74.5507 63.6289 74.4403 63.2976 74.247C63.1872 74.1918 63.1044 74.1365 63.0216 74.0813C62.3592 73.6119 61.9452 72.8388 61.9452 71.9552C61.9452 71.0993 62.3592 70.3262 62.994 69.8568C63.0768 69.8016 63.1596 69.7463 63.2424 69.6911C63.5737 69.4978 63.9877 69.3598 64.4017 69.3322C64.4569 69.3322 64.5121 69.3322 64.5673 69.3322C66.0026 69.3322 67.1895 70.5194 67.1895 71.9552C67.1895 73.391 65.975 74.5783 64.5397 74.5783Z" fill="#C5B322" stroke="#263238" stroke-width="0.5" stroke-miterlimit="10"/>
</g>
<path id="Vector_41" d="M57.9427 120.975V128.982C57.9427 130.363 58.3292 131.523 58.7708 131.523H76.1876C76.6568 131.523 77.0157 130.391 77.0157 128.982V120.975C77.0157 119.595 76.6292 118.435 76.1876 118.435H58.7708C58.3292 118.462 57.9427 119.595 57.9427 120.975Z" fill="#C5B322" stroke="#263238" stroke-width="0.5" stroke-miterlimit="10"/>
<path id="Vector_42" d="M60.289 131.523H112.374C114.251 131.523 115.796 130.391 115.796 128.982V120.975C115.796 119.595 114.251 118.435 112.374 118.435H76.6845C73.5931 121.693 67.7691 127.188 60.289 131.523Z" fill="#A2973E" stroke="#263238" stroke-width="0.5" stroke-miterlimit="10"/>
</g>
<path id="Vector_43" d="M194.72 152.918C194.582 153.746 194.472 154.519 194.334 155.292C194.361 155.265 194.416 155.265 194.444 155.237C198.281 153.415 202.587 152.393 207.113 152.393C222.432 152.393 235.074 164.128 236.509 179.065C236.675 180.695 238 181.937 239.656 181.937H239.822C242.858 181.937 245.176 179.231 244.735 176.249C242.388 160.732 230.658 148.224 215.504 144.827C215.449 144.8 215.394 144.8 215.339 144.8L191.297 94.0779C189.034 90.9578 186.108 88.5556 182.824 87.0094C186.909 93.9122 198.225 115.946 195.603 145.656C195.41 147.699 195.162 149.77 194.858 151.896C194.83 152.227 194.775 152.559 194.72 152.918Z" fill="black" stroke="white" stroke-width="0.5"/>
<path id="Vector_44" d="M195.771 189.439C198.007 193.416 202.285 196.094 207.17 196.094C214.402 196.094 220.281 190.24 220.281 182.978C220.281 177.539 216.942 172.845 212.222 170.885C211.035 176.545 207.391 187.065 195.771 189.439Z" fill="#A2973E" stroke="#263238" stroke-width="0.5" stroke-miterlimit="10"/>
</g>
</svg>
