<svg width="32" height="32" viewBox="0 0 32 32" fill="none" xmlns="http://www.w3.org/2000/svg">
<g id="Icon / ContainerOutlined">
<path id="Vector" d="M26 2H6C5.44687 2 5 2.44687 5 3V29C5 29.5531 5.44687 30 6 30H26C26.5531 30 27 29.5531 27 29V3C27 2.44687 26.5531 2 26 2ZM24.75 27.75H7.25V21.4688H10.3094C10.6719 22.4937 11.3094 23.4156 12.1562 24.1156C13.2344 25.0063 14.6 25.5 16 25.5C17.4 25.5 18.7656 25.0094 19.8438 24.1156C20.6906 23.4156 21.3281 22.4937 21.6906 21.4688H24.75V19.5H20.1125L19.95 20.2719C19.575 22.1406 17.9125 23.5 16 23.5C14.0875 23.5 12.425 22.1406 12.0469 20.2719L11.8844 19.5H7.25V4.25H24.75V27.75ZM10 10.6562H22C22.1375 10.6562 22.25 10.5437 22.25 10.4062V8.90625C22.25 8.76875 22.1375 8.65625 22 8.65625H10C9.8625 8.65625 9.75 8.76875 9.75 8.90625V10.4062C9.75 10.5437 9.8625 10.6562 10 10.6562ZM10 15.6562H22C22.1375 15.6562 22.25 15.5437 22.25 15.4062V13.9062C22.25 13.7688 22.1375 13.6562 22 13.6562H10C9.8625 13.6562 9.75 13.7688 9.75 13.9062V15.4062C9.75 15.5437 9.8625 15.6562 10 15.6562Z" fill="black" fill-opacity="0.25"/>
</g>
</svg>
