<svg width="34" height="34" viewBox="0 0 34 34" fill="none" xmlns="http://www.w3.org/2000/svg">
<g id="Icon / SendOutlined" clip-path="url(#clip0_1219_20354)">
<path id="Vector" d="M23.7034 9.80164L2.88961 16.7142C2.80509 16.7423 2.73382 16.8003 2.68742 16.8766C2.58135 17.0523 2.63604 17.2826 2.81337 17.3903L10.0789 21.7987C10.1883 21.865 10.3242 21.8716 10.4385 21.8136L13.7266 20.2061L12.1207 23.4924C12.0643 23.6085 12.0693 23.7427 12.1372 23.8504L16.5506 31.1275C16.597 31.2038 16.6682 31.2618 16.7511 31.2883C16.9467 31.3546 17.1588 31.2485 17.2267 31.0513L24.179 10.2773C24.2056 10.201 24.2039 10.1165 24.1807 10.0403C24.1128 9.84307 23.9006 9.73701 23.7034 9.80164ZM16.5241 27.8329L13.9503 23.5919L17.1638 17.0208C17.1886 16.9694 17.1903 16.9081 17.1638 16.855C17.1174 16.7622 17.0063 16.7241 16.9119 16.7689L10.3424 19.984L6.11799 17.4202L21.7445 12.2312L16.5241 27.8329Z" fill="black" fill-opacity="0.45"/>
</g>
<defs>
<clipPath id="clip0_1219_20354">
<rect width="24" height="24" fill="white" transform="translate(0 16.9706) rotate(-45)"/>
</clipPath>
</defs>
</svg>
