<svg width="24" height="25" viewBox="0 0 24 25" fill="none" xmlns="http://www.w3.org/2000/svg">
<g id="Icon / DeleteOutlined">
<path id="Vector" d="M8.4375 5.29782H8.25C8.35313 5.29782 8.4375 5.21345 8.4375 5.11032V5.29782L15.5625 5.29782V5.11032C15.5625 5.21345 15.6469 5.29782 15.75 5.29782H15.5625V6.98532H17.25V5.11032C17.25 4.28298 16.5773 3.61032 15.75 3.61032L8.25 3.61032C7.42266 3.61032 6.75 4.28298 6.75 5.11032V6.98532H8.4375V5.29782ZM20.25 6.98532L3.75 6.98532C3.33516 6.98532 3 7.32048 3 7.73532V8.48532C3 8.58845 3.08437 8.67282 3.1875 8.67282H4.60312L5.18203 20.9306C5.21953 21.7299 5.88047 22.3603 6.67969 22.3603H17.3203C18.1219 22.3603 18.7805 21.7322 18.818 20.9306L19.3969 8.67282H20.8125C20.9156 8.67282 21 8.58845 21 8.48532V7.73532C21 7.32048 20.6648 6.98532 20.25 6.98532ZM17.1398 20.6728H6.86016L6.29297 8.67282H17.707L17.1398 20.6728Z" fill="black" fill-opacity="0.45"/>
</g>
</svg>
