<svg width="24" height="25" viewBox="0 0 24 25" fill="none" xmlns="http://www.w3.org/2000/svg">
<g id="Icon / QuestionCircleOutlined">
<g id="Vector">
<path d="M12 2.48531C6.20156 2.48531 1.5 7.18687 1.5 12.9853C1.5 18.7837 6.20156 23.4853 12 23.4853C17.7984 23.4853 22.5 18.7837 22.5 12.9853C22.5 7.18687 17.7984 2.48531 12 2.48531ZM12 21.7041C7.18594 21.7041 3.28125 17.7994 3.28125 12.9853C3.28125 8.17124 7.18594 4.26656 12 4.26656C16.8141 4.26656 20.7188 8.17124 20.7188 12.9853C20.7188 17.7994 16.8141 21.7041 12 21.7041Z" fill="black" fill-opacity="0.45"/>
<path d="M14.6156 8.40796C13.9125 7.79156 12.9844 7.45406 12 7.45406C11.0156 7.45406 10.0875 7.7939 9.38438 8.40796C8.65312 9.04781 8.25 9.90796 8.25 10.8291V11.0072C8.25 11.1103 8.33437 11.1947 8.4375 11.1947H9.5625C9.66562 11.1947 9.75 11.1103 9.75 11.0072V10.8291C9.75 9.79546 10.7602 8.95406 12 8.95406C13.2398 8.95406 14.25 9.79546 14.25 10.8291C14.25 11.558 13.7344 12.2259 12.9352 12.533C12.4383 12.7228 12.0164 13.0556 11.7141 13.4916C11.407 13.9369 11.2477 14.4712 11.2477 15.0126V15.5166C11.2477 15.6197 11.332 15.7041 11.4352 15.7041H12.5602C12.6633 15.7041 12.7477 15.6197 12.7477 15.5166V14.9845C12.7489 14.757 12.8186 14.5351 12.9478 14.3478C13.077 14.1605 13.2596 14.0165 13.4719 13.9345C14.8547 13.4025 15.7477 12.1837 15.7477 10.8291C15.75 9.90796 15.3469 9.04781 14.6156 8.40796ZM11.0625 18.1416C11.0625 18.3902 11.1613 18.6287 11.3371 18.8045C11.5129 18.9803 11.7514 19.0791 12 19.0791C12.2486 19.0791 12.4871 18.9803 12.6629 18.8045C12.8387 18.6287 12.9375 18.3902 12.9375 18.1416C12.9375 17.8929 12.8387 17.6545 12.6629 17.4786C12.4871 17.3028 12.2486 17.2041 12 17.2041C11.7514 17.2041 11.5129 17.3028 11.3371 17.4786C11.1613 17.6545 11.0625 17.8929 11.0625 18.1416Z" fill="black" fill-opacity="0.45"/>
</g>
</g>
</svg>
