<svg width="32" height="32" viewBox="0 0 32 32" fill="none" xmlns="http://www.w3.org/2000/svg">
<g id="Icon / HomeOutlined">
<path id="Vector" d="M29.5788 15.7831L17.5038 3.71432L16.6945 2.90494C16.51 2.72175 16.2607 2.61893 16.0007 2.61893C15.7408 2.61893 15.4914 2.72175 15.307 2.90494L2.42259 15.7831C2.23363 15.9713 2.08428 16.1955 1.98338 16.4424C1.88247 16.6893 1.83205 16.9539 1.83509 17.2206C1.84759 18.3206 2.76322 19.1987 3.86322 19.1987H5.19134V29.3768H26.8101V19.1987H28.1663C28.7007 19.1987 29.2038 18.9893 29.582 18.6112C29.7682 18.4256 29.9157 18.2049 30.016 17.9619C30.1163 17.7189 30.1674 17.4585 30.1663 17.1956C30.1663 16.6643 29.957 16.1612 29.5788 15.7831ZM17.7507 27.1268H14.2507V20.7518H17.7507V27.1268ZM24.5601 16.9487V27.1268H19.7507V20.0018C19.7507 19.3112 19.1913 18.7518 18.5007 18.7518H13.5007C12.8101 18.7518 12.2507 19.3112 12.2507 20.0018V27.1268H7.44134V16.9487H4.44134L16.0038 5.39557L16.7257 6.11744L27.5632 16.9487H24.5601Z" fill="black" fill-opacity="0.25"/>
</g>
</svg>
