<svg width="24" height="25" viewBox="0 0 24 25" fill="none" xmlns="http://www.w3.org/2000/svg">
<g id="Icon / SafetyCertificateOutlined">
<path id="Vector" d="M20.318 4.96735L12.3539 2.25329C12.2578 2.22048 12.1289 2.20407 12 2.20407C11.8711 2.20407 11.7422 2.22048 11.6461 2.25329L3.68203 4.96735C3.4875 5.03298 3.32812 5.25798 3.32812 5.46423L3.32813 16.7705C3.32813 16.9767 3.46172 17.2486 3.62344 17.3775L11.7023 23.6728C11.7844 23.7361 11.8898 23.7689 11.9977 23.7689C12.1055 23.7689 12.2133 23.7361 12.293 23.6728L20.3719 17.3775C20.5336 17.2509 20.6672 16.9791 20.6672 16.7705V5.46423C20.6719 5.25798 20.5125 5.03532 20.318 4.96735ZM18.9844 16.3205L12 21.7627L5.01563 16.3205L5.01562 6.2986L12 3.91735L18.9844 6.2986V16.3205ZM9.47344 11.6095C9.40313 11.5134 9.29063 11.4549 9.16875 11.4549H7.875C7.72266 11.4549 7.63359 11.6283 7.72266 11.7525L10.6852 15.8306C10.7202 15.8786 10.766 15.9176 10.819 15.9445C10.8719 15.9714 10.9305 15.9854 10.9898 15.9854C11.0492 15.9854 11.1078 15.9714 11.1607 15.9445C11.2137 15.9176 11.2595 15.8786 11.2945 15.8306L16.2773 8.97048C16.3664 8.84626 16.2773 8.67282 16.125 8.67282H14.8312C14.7117 8.67282 14.5969 8.73141 14.5266 8.82751L10.9898 13.6978L9.47344 11.6095Z" fill="black" fill-opacity="0.45"/>
</g>
</svg>
