<svg width="24" height="25" viewBox="0 0 24 25" fill="none" xmlns="http://www.w3.org/2000/svg">
<g id="Icon / LogoutOutlined">
<path id="Vector" d="M20.3428 18.1401H18.6952C18.5826 18.1401 18.4772 18.1893 18.4069 18.276C18.2428 18.4753 18.067 18.6674 17.8819 18.8503C17.1246 19.6083 16.2276 20.2124 15.2405 20.6292C14.2178 21.0611 13.1186 21.2827 12.0084 21.2807C10.8858 21.2807 9.79828 21.0604 8.7764 20.6292C7.78928 20.2124 6.89228 19.6083 6.13499 18.8503C5.37636 18.0948 4.77144 17.1993 4.35374 16.2135C3.92015 15.1917 3.70218 14.1065 3.70218 12.9838C3.70218 11.8612 3.92249 10.776 4.35374 9.75416C4.77093 8.76744 5.37093 7.87916 6.13499 7.11744C6.89906 6.35572 7.78734 5.75572 8.7764 5.33853C9.79828 4.90728 10.8858 4.68697 12.0084 4.68697C13.1311 4.68697 14.2186 4.90494 15.2405 5.33853C16.2295 5.75572 17.1178 6.35572 17.8819 7.11744C18.067 7.3026 18.2405 7.49478 18.4069 7.69166C18.4772 7.77838 18.585 7.8276 18.6952 7.8276H20.3428C20.4905 7.8276 20.5819 7.66353 20.4998 7.53931C18.7022 4.74556 15.5569 2.89635 11.9826 2.90572C6.36702 2.91978 1.86468 7.47838 1.92093 13.087C1.97718 18.6065 6.47249 23.062 12.0084 23.062C15.5733 23.062 18.7045 21.2151 20.4998 18.4284C20.5795 18.3042 20.4905 18.1401 20.3428 18.1401ZM22.4264 12.8362L19.1006 10.2112C18.9764 10.1128 18.7959 10.2018 18.7959 10.3588V12.1401L11.4366 12.1401C11.3334 12.1401 11.2491 12.2245 11.2491 12.3276V13.6401C11.2491 13.7432 11.3334 13.8276 11.4366 13.8276L18.7959 13.8276V15.6088C18.7959 15.7659 18.9787 15.8549 19.1006 15.7565L22.4264 13.1315C22.4488 13.114 22.4669 13.0916 22.4794 13.066C22.4919 13.0404 22.4983 13.0123 22.4983 12.9838C22.4983 12.9554 22.4919 12.9273 22.4794 12.9017C22.4669 12.8761 22.4488 12.8537 22.4264 12.8362Z" fill="black" fill-opacity="0.45"/>
</g>
</svg>
