<svg width="24" height="25" viewBox="0 0 24 25" fill="none" xmlns="http://www.w3.org/2000/svg">
<g id="Icon / GiftOutlined">
<path id="Vector" d="M20.625 8.25095H17.1656C17.4844 7.74938 17.6719 7.15407 17.6719 6.51657C17.6719 4.73298 16.2211 3.2822 14.4375 3.2822C13.4672 3.2822 12.593 3.71345 12 4.39313C11.407 3.71345 10.5328 3.2822 9.5625 3.2822C7.77891 3.2822 6.32812 4.73298 6.32812 6.51657C6.32812 7.15407 6.51328 7.74938 6.83438 8.25095H3.375C2.96016 8.25095 2.625 8.5861 2.625 9.00095V13.6884C2.625 13.7916 2.70937 13.8759 2.8125 13.8759H3.75V21.9384C3.75 22.3533 4.08516 22.6884 4.5 22.6884H19.5C19.9148 22.6884 20.25 22.3533 20.25 21.9384V13.8759H21.1875C21.2906 13.8759 21.375 13.7916 21.375 13.6884V9.00095C21.375 8.5861 21.0398 8.25095 20.625 8.25095ZM12.7969 6.51657C12.7969 5.61188 13.5328 4.87595 14.4375 4.87595C15.3422 4.87595 16.0781 5.61188 16.0781 6.51657C16.0781 7.42126 15.3422 8.1572 14.4375 8.1572H12.7969V6.51657ZM9.5625 4.87595C10.4672 4.87595 11.2031 5.61188 11.2031 6.51657V8.1572H9.5625C8.65781 8.1572 7.92188 7.42126 7.92188 6.51657C7.92188 5.61188 8.65781 4.87595 9.5625 4.87595ZM4.21875 12.2822V9.8447H11.2031V12.2822H4.21875ZM5.34375 13.8759H11.2031L11.2031 21.0947H5.34375L5.34375 13.8759ZM18.6562 21.0947H12.7969L12.7969 13.8759L18.6562 13.8759V21.0947ZM19.7812 12.2822L12.7969 12.2822V9.8447H19.7812V12.2822Z" fill="black" fill-opacity="0.45"/>
</g>
</svg>
