<svg width="37" height="38" viewBox="0 0 37 38" fill="none" xmlns="http://www.w3.org/2000/svg">
<g id="Icon / StarFilled">
<path id="Vector" d="M32.3824 13.332L23.3285 12.0162L19.2811 3.81097C19.1706 3.58632 18.9887 3.40446 18.7641 3.29391C18.2006 3.01577 17.516 3.24756 17.2343 3.81097L13.1869 12.0162L4.13304 13.332C3.88342 13.3677 3.6552 13.4853 3.48047 13.6636C3.26923 13.8808 3.15283 14.1729 3.15684 14.4758C3.16085 14.7787 3.28495 15.0676 3.50186 15.279L10.0525 21.6656L8.50487 30.6838C8.46858 30.8936 8.49179 31.1094 8.57188 31.3066C8.65197 31.5039 8.78573 31.6748 8.95799 31.7999C9.13025 31.925 9.33412 31.9993 9.54648 32.0145C9.75884 32.0296 9.97119 31.985 10.1595 31.8856L18.2577 27.6278L26.3559 31.8856C26.577 32.0032 26.8338 32.0425 27.0798 31.9997C27.7003 31.8927 28.1175 31.3043 28.0105 30.6838L26.4629 21.6656L33.0135 15.279C33.1918 15.1043 33.3095 14.8761 33.3452 14.6264C33.4414 14.0024 33.0064 13.4247 32.3824 13.332Z" fill="black" fill-opacity="0.15"/>
</g>
</svg>
