<svg width="32" height="32" viewBox="0 0 32 32" fill="none" xmlns="http://www.w3.org/2000/svg">
<g id="Icon / MessageTwoTone">
<path id="Vector" opacity="0.1" d="M24.2292 7.77699C23.1647 6.7089 21.9013 5.85959 20.5104 5.27699C19.0839 4.67762 17.5516 4.37051 16.0042 4.37387H15.9511C12.8354 4.38637 9.91982 5.60512 7.73857 7.80824C5.5542 10.0114 4.36357 12.9364 4.37607 16.052C4.38545 17.9364 4.8542 19.8082 5.73545 21.4614L5.87607 21.7239V26.1239H10.2761L10.5386 26.2645C12.1917 27.1457 14.0636 27.6145 15.9479 27.6239H16.0011C19.0948 27.6239 22.0011 26.4301 24.1917 24.2614C26.3917 22.0801 27.6136 19.1645 27.6323 16.052C27.6386 14.4707 27.3354 12.9395 26.7292 11.4957C26.1462 10.1051 25.297 8.84177 24.2292 7.77699ZM9.75107 17.4989C9.35855 17.4909 8.98481 17.3293 8.71004 17.0489C8.43528 16.7684 8.28138 16.3915 8.28138 15.9989C8.28138 15.6063 8.43528 15.2293 8.71004 14.9489C8.98481 14.6684 9.35855 14.5069 9.75107 14.4989C10.1436 14.5069 10.5173 14.6684 10.7921 14.9489C11.0669 15.2293 11.2208 15.6063 11.2208 15.9989C11.2208 16.3915 11.0669 16.7684 10.7921 17.0489C10.5173 17.3293 10.1436 17.4909 9.75107 17.4989ZM16.0011 17.4989C15.6086 17.4909 15.2348 17.3293 14.96 17.0489C14.6853 16.7684 14.5314 16.3915 14.5314 15.9989C14.5314 15.6063 14.6853 15.2293 14.96 14.9489C15.2348 14.6684 15.6086 14.5069 16.0011 14.4989C16.3936 14.5069 16.7673 14.6684 17.0421 14.9489C17.3169 15.2293 17.4708 15.6063 17.4708 15.9989C17.4708 16.3915 17.3169 16.7684 17.0421 17.0489C16.7673 17.3293 16.3936 17.4909 16.0011 17.4989ZM22.2511 17.4989C21.8586 17.4909 21.4848 17.3293 21.21 17.0489C20.9353 16.7684 20.7814 16.3915 20.7814 15.9989C20.7814 15.6063 20.9353 15.2293 21.21 14.9489C21.4848 14.6684 21.8586 14.5069 22.2511 14.4989C22.6436 14.5069 23.0173 14.6684 23.2921 14.9489C23.5669 15.2293 23.7208 15.6063 23.7208 15.9989C23.7208 16.3915 23.5669 16.7684 23.2921 17.0489C23.0173 17.3293 22.6436 17.4909 22.2511 17.4989Z" fill="black" fill-opacity="0.25"/>
<path id="Vector_2" d="M20.75 16C20.75 16.3978 20.908 16.7794 21.1893 17.0607C21.4706 17.342 21.8522 17.5 22.25 17.5C22.6478 17.5 23.0294 17.342 23.3107 17.0607C23.592 16.7794 23.75 16.3978 23.75 16C23.75 15.6022 23.592 15.2206 23.3107 14.9393C23.0294 14.658 22.6478 14.5 22.25 14.5C21.8522 14.5 21.4706 14.658 21.1893 14.9393C20.908 15.2206 20.75 15.6022 20.75 16ZM8.25 16C8.25 16.3978 8.40804 16.7794 8.68934 17.0607C8.97064 17.342 9.35218 17.5 9.75 17.5C10.1478 17.5 10.5294 17.342 10.8107 17.0607C11.092 16.7794 11.25 16.3978 11.25 16C11.25 15.6022 11.092 15.2206 10.8107 14.9393C10.5294 14.658 10.1478 14.5 9.75 14.5C9.35218 14.5 8.97064 14.658 8.68934 14.9393C8.40804 15.2206 8.25 15.6022 8.25 16Z" fill="black" fill-opacity="0.25"/>
<path id="Vector_3" d="M28.9127 10.575C28.2064 8.89687 27.1939 7.39062 25.9033 6.09688C24.6217 4.81061 23.1003 3.78819 21.4252 3.0875C19.7064 2.36563 17.8814 2 16.0002 2H15.9377C14.0439 2.00938 12.2096 2.38438 10.4846 3.12188C8.82379 3.82975 7.31663 4.85399 6.04705 6.1375C4.76893 7.42812 3.7658 8.92813 3.07205 10.6C2.3533 12.3313 1.9908 14.1719 2.00018 16.0656C2.01078 18.2358 2.52421 20.3741 3.50018 22.3125V27.0625C3.50018 27.4437 3.65163 27.8094 3.92121 28.079C4.19079 28.3485 4.55643 28.5 4.93768 28.5H9.6908C11.6292 29.476 13.7675 29.9894 15.9377 30H16.0033C17.8752 30 19.6908 29.6375 21.4002 28.9281C23.0668 28.2358 24.5826 27.2253 25.8627 25.9531C27.1533 24.675 28.1689 23.1812 28.8783 21.5156C29.6158 19.7906 29.9908 17.9563 30.0002 16.0625C30.0096 14.1594 29.6408 12.3125 28.9127 10.575ZM24.1908 24.2625C22.0002 26.4313 19.0939 27.625 16.0002 27.625H15.9471C14.0627 27.6156 12.1908 27.1469 10.5377 26.2656L10.2752 26.125H5.87518V21.725L5.73455 21.4625C4.8533 19.8094 4.38455 17.9375 4.37518 16.0531C4.36268 12.9375 5.5533 10.0125 7.73768 7.80937C9.91893 5.60625 12.8346 4.3875 15.9502 4.375H16.0033C17.5658 4.375 19.0814 4.67812 20.5096 5.27812C21.9033 5.8625 23.1533 6.70312 24.2283 7.77812C25.3002 8.85 26.1439 10.1031 26.7283 11.4969C27.3346 12.9406 27.6377 14.4719 27.6314 16.0531C27.6127 19.1656 26.3908 22.0813 24.1908 24.2625Z" fill="black" fill-opacity="0.25"/>
<path id="Vector_4" d="M14.5 16C14.5 16.3978 14.658 16.7794 14.9393 17.0607C15.2206 17.342 15.6022 17.5 16 17.5C16.3978 17.5 16.7794 17.342 17.0607 17.0607C17.342 16.7794 17.5 16.3978 17.5 16C17.5 15.6022 17.342 15.2206 17.0607 14.9393C16.7794 14.658 16.3978 14.5 16 14.5C15.6022 14.5 15.2206 14.658 14.9393 14.9393C14.658 15.2206 14.5 15.6022 14.5 16Z" fill="black" fill-opacity="0.25"/>
</g>
</svg>
