<svg width="24" height="25" viewBox="0 0 24 25" fill="none" xmlns="http://www.w3.org/2000/svg">
<g id="Icon / SmileOutlined">
<path id="Vector" d="M6.75 10.8525C6.75 11.1509 6.86853 11.437 7.0795 11.648C7.29048 11.859 7.57663 11.9775 7.875 11.9775C8.17337 11.9775 8.45952 11.859 8.6705 11.648C8.88147 11.437 9 11.1509 9 10.8525C9 10.5541 8.88147 10.268 8.6705 10.057C8.45952 9.84604 8.17337 9.72751 7.875 9.72751C7.57663 9.72751 7.29048 9.84604 7.0795 10.057C6.86853 10.268 6.75 10.5541 6.75 10.8525ZM15 10.8525C15 11.1509 15.1185 11.437 15.3295 11.648C15.5405 11.859 15.8266 11.9775 16.125 11.9775C16.4234 11.9775 16.7095 11.859 16.9205 11.648C17.1315 11.437 17.25 11.1509 17.25 10.8525C17.25 10.5541 17.1315 10.268 16.9205 10.057C16.7095 9.84604 16.4234 9.72751 16.125 9.72751C15.8266 9.72751 15.5405 9.84604 15.3295 10.057C15.1185 10.268 15 10.5541 15 10.8525ZM12 2.48532C6.20156 2.48532 1.5 7.18688 1.5 12.9853C1.5 18.7838 6.20156 23.4853 12 23.4853C17.7984 23.4853 22.5 18.7838 22.5 12.9853C22.5 7.18688 17.7984 2.48532 12 2.48532ZM18.1641 19.1494C17.3625 19.9509 16.4297 20.5791 15.3914 21.0197C14.3203 21.4744 13.1789 21.7041 12 21.7041C10.8211 21.7041 9.67969 21.4744 8.60625 21.0197C7.56954 20.5819 6.62785 19.9466 5.83359 19.1494C5.03203 18.3478 4.40391 17.415 3.96328 16.3767C3.51094 15.3056 3.28125 14.1642 3.28125 12.9853C3.28125 11.8064 3.51094 10.665 3.96562 9.59157C4.40346 8.55486 5.03868 7.61317 5.83594 6.81891C6.6375 6.01735 7.57031 5.38923 8.60859 4.9486C9.67969 4.49626 10.8211 4.26657 12 4.26657C13.1789 4.26657 14.3203 4.49626 15.3937 4.95095C16.4305 5.38878 17.3721 6.024 18.1664 6.82126C18.968 7.62282 19.5961 8.55563 20.0367 9.59391C20.4891 10.665 20.7188 11.8064 20.7188 12.9853C20.7188 14.1642 20.4891 15.3056 20.0344 16.3791C19.5971 17.4154 18.9618 18.3564 18.1641 19.1494ZM15.5625 13.4775H14.4352C14.3367 13.4775 14.2523 13.5525 14.2453 13.6509C14.1562 14.8111 13.1836 15.7275 12 15.7275C10.8164 15.7275 9.84141 14.8111 9.75469 13.6509C9.74766 13.5525 9.66328 13.4775 9.56484 13.4775H8.4375C8.41207 13.4775 8.3869 13.4826 8.36351 13.4926C8.34013 13.5026 8.31903 13.5173 8.30149 13.5357C8.28395 13.5541 8.27034 13.5759 8.26149 13.5997C8.25264 13.6236 8.24873 13.649 8.25 13.6744C8.35313 15.6502 9.99609 17.2275 12 17.2275C14.0039 17.2275 15.6469 15.6502 15.75 13.6744C15.7513 13.649 15.7474 13.6236 15.7385 13.5997C15.7297 13.5759 15.716 13.5541 15.6985 13.5357C15.681 13.5173 15.6599 13.5026 15.6365 13.4926C15.6131 13.4826 15.5879 13.4775 15.5625 13.4775Z" fill="black" fill-opacity="0.45"/>
</g>
</svg>
