<svg width="32" height="32" viewBox="0 0 32 32" fill="none" xmlns="http://www.w3.org/2000/svg">
<g id="Icon / UserOutlined">
<path id="Vector" d="M26.8272 23.8625C26.2377 22.4662 25.3823 21.1978 24.3085 20.1281C23.238 19.0553 21.9698 18.2 20.5741 17.6094C20.5616 17.6031 20.5491 17.6 20.5366 17.5938C22.4835 16.1875 23.7491 13.8969 23.7491 11.3125C23.7491 7.03125 20.2804 3.5625 15.9991 3.5625C11.7179 3.5625 8.2491 7.03125 8.2491 11.3125C8.2491 13.8969 9.51473 16.1875 11.4616 17.5969C11.4491 17.6031 11.4366 17.6062 11.4241 17.6125C10.0241 18.2031 8.76785 19.05 7.68973 20.1313C6.61694 21.2018 5.76162 22.4699 5.17098 23.8656C4.59073 25.232 4.2778 26.697 4.2491 28.1812C4.24827 28.2146 4.25412 28.2478 4.26631 28.2788C4.2785 28.3099 4.29678 28.3382 4.32008 28.3621C4.34338 28.386 4.37122 28.4049 4.40196 28.4179C4.43271 28.4308 4.46574 28.4375 4.4991 28.4375H6.3741C6.5116 28.4375 6.62098 28.3281 6.6241 28.1938C6.6866 25.7812 7.65535 23.5219 9.36785 21.8094C11.1397 20.0375 13.4929 19.0625 15.9991 19.0625C18.5054 19.0625 20.8585 20.0375 22.6304 21.8094C24.3429 23.5219 25.3116 25.7812 25.3741 28.1938C25.3772 28.3313 25.4866 28.4375 25.6241 28.4375H27.4991C27.5325 28.4375 27.5655 28.4308 27.5962 28.4179C27.627 28.4049 27.6548 28.386 27.6781 28.3621C27.7014 28.3382 27.7197 28.3099 27.7319 28.2788C27.7441 28.2478 27.7499 28.2146 27.7491 28.1812C27.7179 26.6875 27.4085 25.2344 26.8272 23.8625ZM15.9991 16.6875C14.5647 16.6875 13.2147 16.1281 12.1991 15.1125C11.1835 14.0969 10.6241 12.7469 10.6241 11.3125C10.6241 9.87813 11.1835 8.52812 12.1991 7.5125C13.2147 6.49687 14.5647 5.9375 15.9991 5.9375C17.4335 5.9375 18.7835 6.49687 19.7991 7.5125C20.8147 8.52812 21.3741 9.87813 21.3741 11.3125C21.3741 12.7469 20.8147 14.0969 19.7991 15.1125C18.7835 16.1281 17.4335 16.6875 15.9991 16.6875Z" fill="black" fill-opacity="0.25"/>
</g>
</svg>
